<?xml version="1.0" encoding="utf-8"?>
<!-- Generator: Adobe Illustrator 19.2.1, SVG Export Plug-In . SVG Version: 6.00 Build 0)  -->
<svg version="1.1" id="Layer_1" xmlns="http://www.w3.org/2000/svg" xmlns:xlink="http://www.w3.org/1999/xlink" x="0px" y="0px"
	 viewBox="0 0 750 347" style="enable-background:new 0 0 750 347;" xml:space="preserve">
<style type="text/css">
	.st0{fill:#0D7ABA;}
	.st1{fill:#FDFEFE;}
	.st2{filter:url(#dropshadow);}
	.st3{fill:#FFFFFF;}
	.st4{clip-path:url(#SVGID_2_);}
	.st5{clip-path:url(#SVGID_5_);fill:#0D7ABA;}
	.st6{clip-path:url(#SVGID_2_);fill:#0D7ABA;}
	.st7{fill:#FBC134;}
	.st8{display:none;}
	.st9{fill-rule:evenodd;clip-rule:evenodd;fill:#0053A4;}
	.st10{fill-rule:evenodd;clip-rule:evenodd;fill:#FFF100;}
</style>
<filter  height="130%" id="dropshadow">
	<feGaussianBlur  in="SourceAlpha" stdDeviation="3"></feGaussianBlur>
	<feOffset  dx="0" dy="2" result="offsetblur"></feOffset>
	<feComponentTransfer>
		<feFuncA  slope="0.5" type="linear"></feFuncA>
	</feComponentTransfer>
	<feMerge>
		<feMergeNode></feMergeNode>
		<feMergeNode  in="SourceGraphic"></feMergeNode>
	</feMerge>
</filter>
<g>
	<path class="st0" d="M379.9,127.3c1.5,3.1,3.1,6.3,4.6,9.4c1,2,2.8,3.7,2.5,6.2c0,0.1,0,0.3,0,0.4c5.5,3,2.8,10.3,7.4,13.7
		c1.1,0.8,1.5,2.1,1.6,3.3c0.1,1.4,0.9,2.4,1.9,3.2c3.4,2.4,6.3,4.9,7.5,9.1c1,3.8,5,2.9,6.8,2.1c3.5-1.5,7.5-0.5,10.5-2.9
		c1.2,1.3,0.8,2.8,0.4,4c-2.2,6.9-4.8,13.6-10,18.9c-2.4,2.4-5.5,4.1-7.7,6.8c-3.6,4.4-8.4,8.5-8.9,14.2c-0.3,3.6-0.3,7.8,1.6,11.6
		c2.1,4.1,1.6,8.8,1.1,13.2c-0.2,1.8-1.6,3.6-3.6,4.2c-3.7,1.1-5.7,4.2-8.4,6.4c-1.4,1.1-1.5,2.4-1.1,4c1.7,7.5,1.6,7.5-4.8,11.2
		c-0.4,0.3-0.8,0.6-1.2,0.9c0.9,3.3,0.2,6-2.3,8.5c-2.5,2.6-4.4,5.9-7.1,8.5c-2.7,2.5-5.9,3.8-9.4,3.8c-2.9,0-5.6,0.6-8.3,1.1
		c-2.8,0.5-5.6-1.1-5.1-3.7c0.8-4.1-1.5-7.5-3.3-10.1c-2.8-3.9-4-8-4.2-12.3c-0.2-4.9-2.4-8.8-4.6-12.6c-3.3-5.9-1.3-11.1,1.3-16.1
		c1.3-2.5,1.3-4.3,0.9-7c-0.7-4.6-2.7-9-2.4-13.8c0.2,0,0.4,0.1,0.5,0.1c0-0.2,0-0.3-0.1-0.5c-0.1,0.1-0.3,0.3-0.4,0.4
		c-3.2-0.7-4.1-3.8-6.2-5.7c-2.6-2.4-1-5.4-0.4-8.1c1-1,2.5-0.3,3.7-0.8c0.5-2.5,0.5-2.5-2.5-3.3c-0.6-5-2.5-6.4-7.2-5.5
		c-1.3,0.2-2.3,0.5-3.2-1.1c-2.2-4-3.7-4.7-8-3.2c-4.8,1.7-9.6,3.1-14.9,2.6c-0.9-0.1-1.9,0-2.6,0.4c-4,2.2-7,1.1-9.9-2
		c-1.4-1.5-3-3.1-5-4.2c-0.6-0.4-1.5-1-1.6-1.6c-0.6-4.6-4.9-6.7-7.1-10.2c-1.6-2.5-1.9-5.6-0.9-8.4c1.7-5,2.2-9.4,0.9-14.4
		c1.2-0.9,2.7-0.4,4-0.5s2.6,0,4,0c0.7-1.9,0.4-3.9,2.1-5.5c1.4-1.4,0.2-3.7,0.8-5.6c2.1-1,4.5-0.1,6.8-0.6c0.8-1.2,0.9-2.5,0.4-4.1
		c-2.6,0-5.3,0-8.7,0c1.8-1.3,2.9-2.2,4.1-3c1.8-1.2,2.9-2.7,2.8-5c-0.2-2.4,1-4.8,3-5.8c3.1-1.5,4.9-3.8,6.4-6.9
		c4.4,3.2,8.5,2,12.6-0.4c3.4-2,7.2-2.4,11.1-1.8c3.7,0.5,7.4-1.1,11.3-0.4c-0.7,2.3,2.8,5-1.5,6.8c2.1,2.3,4.3,3.3,6.9,3.5
		c2.2,0.1,3.7,1,5.5,2.7c2,1.9,5.3,2.7,8.1,3.5c1,0.3,1.6-1.1,1.6-2.4c0.1-3.4,3.2-5.1,6.1-3.1c3.9,2.7,8.7,2.6,13,4.1
		c1.1,0.4,2-0.3,2.9-0.7c0.9-0.4,1.9-1,2.9-0.5c2.6,1.2,5.1,1.7,7.1-1.1c0.1-0.1,0.7,1.1,1.7,0.4c-2.2-4.2,1.4-8.5-0.2-12.9
		c-1.5,0.2-3.2-0.1-4.5,1.3c-0.2,0.2-0.9,0.5-1.1,0.3c-3.6-2.4-8-0.3-11.7-2.2c-0.1-0.1-0.3,0-0.4-0.1c-1.2-0.6-1.5-2-1.5-2.9
		c-0.1-2-2.7-3.6-1.1-6c-2.4-1.3-4.8-1.3-7.2,0l0,0c-1.6,1.4-1.1,3.6,1.5,5.7c-1.4,0.9-2.7,1.9-1.7,3.8c-1.8,0.1-3-0.4-3.1-1.8
		c-0.2-2.4-1.8-4-3.2-5.5c-2.5-2.8-1.7-5.2-0.1-7.8c-0.5-1-1.8-1.8-2.2-1.4c-3.4,3-5.8-0.6-6.8-2c-1.3-1.8-3.7-1.8-4.7-3.8
		c-0.3-0.7-2,0-2.3,0.5c-0.9,1.2-1,2.8,0.2,3.8c3,2.8,5.5,6.4,9.9,7.6c-2.2,3.2-2.1,3-5,1.2c-3.9-2.4-7.9-4.4-10.2-8.7
		c-0.9-1.6-3-1.1-4.4-0.1c-2,1.5-3.9,2.6-6.6,1.4c-1.5-0.7-3.4,0.3-3.1,2.2c0.4,2.5-1.4,2.7-2.8,3.3c-2.6,1.2-4.4,2.7-4.6,5.8
		c-0.1,2.4-4,5.6-6.6,5.6c-2,0-3.8,0.3-5.6,1.9c-1-3-3.2-3.3-5.8-2.7c-0.8-2.8-1.7-5.2-0.1-8c1.2-2.1,0.5-4.7,0.3-7.1
		c3.3-2.6,7-0.6,10.4-1c2-0.3,4.7,2.2,5.8-1.5c1.2-4,0.2-6.9-3.1-8.9c-0.8-0.5-2.2-0.3-2.2-2c1.7-2,4.3-0.1,6.6-1.2
		c2-0.9,4.1-2,5.6-3.2s3-2.4,4.6-3.2c3.4-1.6,5.4-5.7,10.4-5.3c-1.1-3.6-3.1-7.2,1.9-8.7c1.4,2.1,0.1,3.8-1.3,5.4
		c0.6,1.7,2.8,2.8,3.1,2.8c3.3-1.4,6.9,1.2,10.1-0.9c1-0.7,2.3-1.3,3.3-0.7c2.4,1.5,4.1,0.3,5.9-1.2c-0.8-2.1-1.4-4.3,1.1-5.6
		c1.6-0.3,2.1,1.7,3.6,1.2c2.2-2-0.6-2.9-1.2-4.5c3.3-3,8.2,0.5,11.1-2.5c-2-1.8-4.6-1.3-7.2-0.8c-6.8,1.4-6.9,1.3-8.8-5.5
		c2.3-1.6,4.7-3.2,6.6-5.4c-3.2-2.4-5.2-2.1-6.7,1.1c-0.4,1-1,1.6-2,2.2c-6,3.4-5.9,3.4-2.9,9.4c-0.9,1-2.7,1.6-2.5,3
		c0.6,3.9-2.7,4.7-4.8,6.5c-1.2,1-1.8-0.1-2.8-0.3c-1.5-0.4-0.2-1-0.2-1.5c-0.1-2.4-1.2-4.5-2.4-6.4c-0.4-0.7-1.3-0.9-2.3-0.1
		c-0.9,0.8-2.1,1.5-3.3,2c-2.6,1.1-4.3,0-4.5-2.7c0-0.2,0-0.5,0-0.7c0-1.4-1.9-2.9-0.8-4.1c1.4-1.5,3.3-2.7,5.2-3.6
		c3.7-1.9,6.5-4.9,9.6-7.5c3.4-2.9,6.1-7.8,12.1-7.6c2.9,0.1,5.7-1.6,8.8-1.6c2.4,0,4.4-0.2,6.4,1.8c1.1,1.1,3.6,0.9,5.5,1
		c4.2,0.3,7.9,2,11.8,3.3c0.9,0.3,2.2,0.5,2,1.9c-0.2,1.2-1.3,1.5-2.3,1.7c-1.7,0.3-3.3,0.1-5-0.2c-1.9-0.4-3.8-0.8-5.7-0.5
		c-0.4-0.9-1-1.3-1.9-1c0.5,0.8,1.2,0.8,2,0.9c0.6,1,2,0.6,2.6,2c1.5,3.6,2.9,4,6.6,2.6c1-0.4,2.3-0.2,3.4-0.3
		c0.6-0.9-0.8-1.2-0.5-2.3c1.6-0.7,3-2.3,5.3-1.4c1.4,0.5,1.2-1,1.6-1.6c0.1-0.2,0.2-0.4,0.4-0.5c2,0.8,3.4,1.4,5.7-0.5
		c2.1-1.7,5.1-3.2,8.9-1.9c2.4,0.8,5.5-1.2,8.5-0.7c1.4-3.4,4.2-2.3,6.6-1.8c2.7,0.6,5.4,1.6,8.1,2.4c0.3,0.1,0.7,0,1.6,0
		c-3-2.7-8.5-4.1-4-9.4c2.1,0.3,5.1-1.3,5.7,3.1c0.1,1,1.9,2.7,2.9,4.1c1.4,1.9,1.8,3.8,0,5.6c3.4,2,4.2,1.5,6.4-4.2
		c1.3-0.4,1.6,0.9,2.4,1.5c0.7,0.5,1.4,1.1,2.4,1.1c-1.7-2.6-3.1-3.9-5.6-3.5c-3.4,0.4-4.3-1.1-4.5-3.9c1.3-0.5,2.7-0.1,4.1-0.3
		c-0.1-0.9-1.1-0.2-1.4-0.8c4.3-2.2,4.3-2.2,12.9,2.9c-1.1-4.6-6.5-3.4-8.7-6.3c1.1-1.3,2.5-0.5,3.7-0.8c1.7-0.4,3-0.7,4.4-2.2
		c2.6-2.7,6.9-2.3,10.5-2.6c2.5-0.2,5,0.4,7-1.9c0.5-0.5,2-0.5,2.9-0.3c4.8,1.1,9.8,0.6,14.7,1.6c1.5,0.3,3,0.5,3.9,2.1
		c-1.4,1.7-4,1.7-4.9,4c2.8,0,5.4-1,8.2-0.9c8.8,0.5,17.7,1.6,26.2,3.5c4.9,1.1,9.6,1.5,14.4,1c1.9-0.2,4.4,1.8,5.5-1.9
		c0.3-1.1,3.2-0.5,4.7-0.2c2.7,0.6,5.4,0.8,8.2,0.8s5.7,1.3,8.5,2.2c1.6,0.5,3.2,0.7,4.9,0.4c4.3-0.6,8.4-0.4,12.2,2.2
		c2.4,1.7,5.4,0.9,8,0.9c3.4,0,6.8,0,10.2,0.6c0.4,0.3,0.8,0.6,1.2,0c0,0-0.4-0.4-0.6-0.6c4.7-1.9,9.4-0.8,13.9,0.3
		c6.3,1.6,13,2,18.8,5.3c1.7,1,3.5-0.7,5.3,0.1c1.5,0.6,3.2,0.9,4.9,1.4c-0.2,1.3-0.3,2.4-0.5,3.5c-4.9,0.7-9.5-5.2-14.2-0.1
		c1.7,0.9,2.6,3.2,5.2,3.5c-2.9,1.8-5.6,3.4-7,6.7c-4-2.1-7.5,0.5-11.5,0.4c1.1,2.5,1.6,4.6,4.8,5.6c2.7,0.9,3.1,4.7,5.1,6.9
		c-4.1,2.1,1,6.1-2,8.7c-3.9-3.5-8-7-11.8-10.7c-1.8-1.8-2.6-3.7-0.8-6.3c1.2-1.7,0.7-4.3,1.8-6.4c0.8-1.5-1.5-2.5-2.7-3.5
		c-1.4,1.2-0.6,3-2.4,3.9c-2.2-1.5-4.5-3.3-8-1.8c-0.3,1.5-1.8,3.2-0.5,5.2c-0.6,0.9-1.8,1.2-2.1,1c-5-3.4-10.4,0.1-15.5-1
		c-1.7-0.4-2.9,0.7-3.4,2.4c-0.9,3-1.9,5.9-4,9c4.1,0,6.8,3.5,11.1,2.2c1.1-0.4,3.6,0.8,4.9,2.8c4.2,6.4,7.2,12.8,3.8,20.6
		c-1.1,2.4-2.2,3.3-4.9,3c-2.4-0.3-4.9-0.4-6.7,2.1c-0.4,0.6-1,2.5-2.8,1.2c-0.8-0.6-0.8,0.4-1.2,0.9c-1.8,2.6-4.2,4.2-7,5
		c-0.9-0.6-1.1-1.1-0.8-1.8c0.5-1,0.3-1.7-0.7-2c-0.8-0.2-1.6-0.4-2.4,0.6c-1.3,1.6-1.8,4-4.6,3.7c0.4,2,1.5,2.3,2.7,2.4
		c1.5,0.1,1.2,1.9,2.8,2.3c1.8-1.3,4-1.2,6.4-0.2c0.2,1.3-1.2,1-1.8,1.5c-2.7,2.6-2.5,3.5,0.1,6.3c2.5,2.7,6,5.4,3.7,9.9
		c4,0.9,4.7,2.2,3.2,5.5c-1.1,2.3-1.8,4.8-2.8,7c-1.5,3.5-4.3,6.7-8.8,7.1c-3,0.3-5,2.7-7.9,3.3c-1.3,0.3-0.9,2.1-0.1,2.8
		c1.2,1,1,1.8,0.6,3c-0.4,1.1-1.2,1.7-2.3,1.7c-0.7,0-1.2-0.4-1.5-1c-0.7-1.2,0-1.9,0.8-2.5c0.4-0.3,0.7-0.7,1.2-1
		c-0.4-2-1-3.6-3.6-3.7c-2.4-0.1-3.2,1.6-4.2,3.2c-1.1,1.8-1.7,3.3-0.1,5.1c1.4,1.5,2.5,3.2,4.1,4.5c3.6,2.8,4.9,6.6,4.7,11.1
		c0,0.8,0.1,1.6-0.5,2.1c-2.4,2-5.8,2.4-7,6.1c-3.7-5.4-8.1-8.4-12.2-11.6c-2.3,2.5-2.2,8.2-1.3,11c1.3,4.2,4.5,6.2,7.4,8.8
		c0.6,0.6,1.5,1.4,1.5,2.1c0.1,2.8,0.6,5.6,2.2,8.3c-4.2-0.6-7.5-3.2-8.1-6.6c-0.7-4-2-7.6-5.2-10.2c-1.2-1-0.7-2-0.5-3.1
		c0.9-6-0.9-13.1-4.7-18.3c-0.2,0-0.5-0.1-0.7-0.1c-1.5,0.5-1.8,2.8-4.1,2c-2.7-0.9-0.6-2.8-1.1-4.2c-0.7-2-1.3-4.4-3-5.6
		c-2.4-1.6-3.6-3.8-4.8-6.2c-0.8-1.7-1.8-3.1-3.1-0.1c-0.6,1.4-2.4,1.6-3.7,1.5c-2.4-0.3-3.4,0.2-4.2,2.8c-0.8,2.3-3.8,3.7-5.5,5.9
		c-1.8,2.2-3.6,4.5-6.3,5.9c-1.2,0.6-1.8,1.6-1.4,2.8c1.1,3.3-0.4,6.4-0.6,9.6c-0.2,2.8-2.2,4.9-4.3,8c-3.9-5.5-5.7-11.4-8.4-16.8
		c-2.9-5.6-4.1-11.6-5.1-17.9c-4.1,2.8-5.9,2.2-7.9-2.1c-1.4-3.1-4.4-5-6.4-7.7c-0.6-0.8-1.7,0-2.5,0.1c-5.4,0.6-10.7,0.2-16.1-0.5
		c-2.9-0.4-2.3-3.8-4.5-4c-1.9-0.1-3.6,2.4-5.7,1c-2.5-1.6-5.4-2.7-6.9-5.7c-1.8-3.4-3.5-3.7-7.2-1.7c2.8,4.2,5.3,8.6,8.4,12.6
		c2.2,2.9,6.4,2.5,8.6-0.4c0.6-0.8,1.2-1.6,2.4-2.1c1.1,1.8,1,4.5,3.8,5.1c2.2,0.4,4,1.5,5.2,3.6c0,0.2,0,0.6-0.2,0.9
		c-3,3.8-4.5,8.7-8.9,11.5c-0.6,0.4-0.9,0.9-1.8,1c-2.2,0.3-4.1,1-5.7,3.2c-1.6,2.4-5.2,2.3-7.7,4c-2.4,1.7-5.8,1.7-8.4,3.4
		c-1.4,0.9-2.7,0.2-3.2-1.5c-0.1-0.5-0.1-1-0.2-1.5c-0.8-6.7-3.8-12.3-8.8-16.9c-0.3-0.3-0.6-0.6-0.7-0.9c-0.9-7.4-7-11.9-10.3-18
		c-0.8-1.4,0-2.7-0.5-4.1c-0.7,1.3-0.4,3-2,3.7C381.2,130.2,381.5,127.7,379.9,127.3c-0.1-0.2,0-0.4-0.1-0.6
		c-0.1-0.3-0.3-0.2-0.3,0.1C379.5,127,379.7,127.1,379.9,127.3z M378.8,89.6c0.2-1.5-0.9-1.9-1.2-2.6c-1.5-2.9-4.6-3.7-6.4-1.2
		c-2.8,4.1-4.6,8.6-4.4,13.8c3.6,0.6,6.2-1.8,9-2.8c3.4-1.1,6.1-1.5,9.1,0.1c2.6,1.3,5.4,1.4,8.2,1.3c1.4-0.1,3.1-0.4,3.4-2
		c0.3-1.4-0.8-2.6-2.1-3.3c-2.8-1.5-5.2-3.6-8.4-4.6c1-2,1.8-3.8,2.8-5.8c-3.2,0.3-5.7,1.4-8.3,2.5c0.3,1.2,1.9,1.5,1.5,3.2
		C381.2,88.5,380.3,88.9,378.8,89.6z M462,98.8c-3-1.9-5.4-2.1-9.1-0.7c-0.6,0.2-1-0.2-1.4-0.2c-2.4-0.3-3.8-1.7-4.8-3.7
		c-0.9-1.9-2.3-2.9-4.6-2.6c-2.7,0.3-5.3,0-7.4-2.1c-1.1-1-2.6-1.6-4-2.3c-2.1-1.1-4.1-0.3-5.6,1c-1.2,1,1.1,8.1,2.8,9.3
		c1-1.7,1.9-4,4.4-2.9c2.4,1.1,5.1,2.5,6.8,4.1c2.7,2.8,5.9,4.4,9.1,6.2c0.8,0.4,1.8,0.4,2.1,1.4c0.6,1.7,2.1,1.5,3.1,0.8
		c1.1-0.7,0.9-2,0.1-3c-0.4-0.6-0.8-1.2-1.1-1.6C454.1,97.4,459.1,101.6,462,98.8z M355,79.1c-2.6-3-6.5-2.7-11,0.7
		C348.1,82.9,351.4,78.3,355,79.1z M357.4,98.3c0.3-2.5-0.4-3.7-2.6-3.5c-1.2,0.1-2.8,0.6-2.4,2.3
		C353.2,100.1,355.7,97.1,357.4,98.3z"/>
	<path class="st0" d="M14.1,52.5c-1.6-2.9,0.6-4.2,2.5-5.3c3.4-2.1,7.3-3,11.3-3.3c2.3-0.2,3.8-1.2,5.8-3c-3.3,0.5-6.1,1-8.8,0.6
		c-0.1-1.6-0.2-2.8,1.9-3.1c2.8-0.3,5.5-2,8.5-0.5c0.8,0.4,2,0,2.8-0.8c-1.3-3.1-0.9-4.7,1.8-5c4.7-0.5,8.6-3.1,13.3-3.6
		c5-0.5,9.8-2,15.1-0.1c2.5,0.9,5.5,0.9,8.4,0.9c2.5,0,5,0.1,7.1,1.3c5.1,2.8,10.1,0.8,14.9-0.1c2.4-0.5,5.3,0.7,7.3-1.9
		c0.8,3.4,3.8,2.4,5.1,2c2.7-0.8,4.8-0.2,7,0.8c1.7,0.8,3.7,0.1,5.5,0.9c-0.5,1.4-2.1,0.6-2.5,1.6c0,0.5,0.4,0.6,0.8,0.6
		c1.9,0.2,3.9,0.2,5.8-0.3c2.3-0.6,3.4,0.1,3.3,2.9c2.4-4.9,6.2-4.4,10.1-3.2c1.5,0.4,3.1,0.2,4.5,0.4c2.4,0.4,4.7-0.8,7.4,0.5
		c1.6,0.8,4.8-1.9,6.8-3.6c-0.5-1.5-1.9-0.8-2.3-1.6c-0.4-1.4,0.9-2,1.4-3.2c-2.3-0.2-5.2,0.7-5.5-3.1c1.6,0.1,3.1,0.9,4.6-1.2
		c1-1.4,3.8-0.8,5.7,0.1c-1.9,0.1-2.3,1.5-2.5,3c2.6,1.1,2.7-0.9,3.1-2.4c2.6-2.3,5.7-2.2,9.2-1.7c-0.9,1.4-2.1,2-3.6,2
		c-3,0-5,1-5.3,4.2c-0.2,1.7-2,3.3-0.3,5.2c1.1-0.1,1.7-1.9,3.3-1.1c1.1,1.6-2.4,1.7-0.9,3.6c2.6-0.6,5.3-1.9,6.8-3.8
		c2.4-3,3.9-1.1,6.1,0c-2.9,0.8-2.4,4.8-5.6,5.2c-1.9,0.2-3.6,1.2-5.6,0.5c-1.1-0.4-2-0.1-2.2,1.3l0,0c-6.4,4-14,5.4-20.5,9.3
		c-1.1,0.7-2.2,1.3-3.2,2.1c-2.1,1.6-4.9,3.1-2.6,6.5c0.3,0.5-0.1,1.4-0.3,2.4c6.4-2.4,8.7,6.4,15.2,3.8c-0.7,3.9-3.3,6.7-0.6,9.9
		c2.5-0.3,4.1-1.2,4.6-4.2c0.4-2.3,1.3-4.8,4.6-5.1c1.6-0.1,3-1.3,4.2-2.5c1.7-1.7,2.5-3.5,0.4-5.8c2.9-1.6,4.3-4.3,5.5-7
		c0.5-1,1.2-2.2,2.1-1.8c2.9,1.2,7.2-1.7,9.1,2.8c0.2,0.6,1.4,0.5,1.9,1.5c-0.4,0.9-0.9,1.9-1.3,2.8c0,1.9,2.2,2.5,4.7,1.9
		c2.2-0.5,2.7-3.2,5.1-3.3c1.2,2.2,2.5,4.8,1.6,7.1c-1,2.5,0.6,3.1,1.9,4.1c1,0.7,2.1,1.3,3,2.2c3.4,3.4,0.6,6-0.8,8.9
		c-0.2,0.4-0.6,0.8-0.8,1.1c0.4,2.4,2.5,2,3.7,2.3c0.9,1.5-0.8,2.8,0.3,4.4c0.7,1-1.2,2.1-2.1,1.5c-3-1.9-6.3-1.7-10-1.7
		c2.4-3.3,5.1-5.9,7.5-8.6c-0.8-1.4-1.9-0.7-2.4-0.4c-4.2,3.2-9,2.4-13.7,2.3c-2.6-0.1-4.7,0.7-6.7,2.3c0.3,0.9,1.1,0.7,1.6,0.7
		c2.8-0.1,3.7,0.3,2,3.3c-1.8,3-0.7,4.6,2.9,5.1c0.6,0.1,1.3-0.1,1.9,0.9c-3.2,1.9-7.2,1.9-9.8,4.6c-1.7-2.2,0.6-2.5,0.7-3.7
		c-5.8-0.5-11.9,3.3-13.4,8.6c-6.5-0.4-9.5,4.5-13.2,8.3c-0.1-0.6-0.3-1.6-0.5-2.7c-0.3,0.3-0.6,0.4-0.7,0.7
		c-0.5,1.2-1.8,1.9-1.6,3.6c0.5,3.8-0.6,6.7-4.7,8.2c-2.1,0.8-3.8,2.5-5.7,3.7c-5.9,3.8-6.6,5.6-4.9,12.2c0.7,2.7,0.6,5.2-1.8,7.5
		c-1.9-2.4-2.8-4.8-2.6-7.7c0.2-3.6-0.4-3.3-3.9-4.3c-2.6-0.7-4.9-1.5-7.6-1.2c-1,0.1-2.3-0.1-2.6,1.1c-0.7,2.9-2.6,1.7-4.2,1.3
		c-3-0.8-5.6-0.5-8.8,0.6c-6.9,2.2-6.2,8.2-8.4,12.8c-2,4-1.2,7.9,1,11.7c1.3,2.3,3,3.4,5.8,3c3.9-0.5,7.1-1.4,8-5.9
		c0.4-1.9,4.1-2.5,8.3-1.6c-2,2.5-2,6.1-5.3,7.8c-2.1,1.1-1.9,3.3-1.6,5c0.3,1.9,2.3,1,3.6,1.1c1.3,0.1,2.5-0.2,3.8-0.3
		c3.8-0.3,5.4,1.7,4.5,5.3c-0.4,1.7-0.9,3.4-1.1,5.2c-0.7,5,3.1,8.2,7.8,6.4c2.8-1.1,4.5,1.1,7.1,2c3.4-2.9,5.3-9.3,12-6.5
		c0.5,1.7-2.3,3.4,0.4,4.9c1.9-1.2,0-2.8,0.5-4.4c2.4-0.7,4.1-2.3,7.5,0.2c2.4,1.8,7.4,2.9,11.1,0.1c2.2,2.2,4.2,4.2,6.5,6.4
		c-1.4,0.8-0.8,2.6-1.9,3.8c-1.4,1.4-1.2,2.9,0.7,4c1.4,0.9,2.2,2.3,1.6,3.8c-0.8,2.1-0.8,4,1,5.5s2.9-0.9,4.5-1
		c0.4,0,0.7-0.2,1-0.3c0.6-0.9-0.3-1.4-0.5-2.1c-0.3-1.6-2.7-2.9-1.2-4.8c1.5-1.9,3.9-2.8,6.3-3c3.3-0.2,7.9,3.3,8.6,6.4
		c0.4,1.9,0.9,3.6,2.6,5c-2,2.6-3.8,5.1-5.6,7.5c1.2,1,2.7-2.2,3.9,0.1c0.1,0.1,0.2,0.2,0.4,0.3c1.4,0.3,3.3,2.5,3.8-0.8l-0.1,0.1
		c4-2.2,6.2-1.5,10.3,2.1c1.8,1.5,4.7,1.7,7.1,1.5c3.2-0.3,5.1,1.2,7.1,3.1c0.9,0.9,1.7,2.1,3,2.3c2,0.3,3.7,0.4,4.3,2.9
		c0.8,3.1,1.4,6.2-1,8.6c-2.7,2.8-3.8,6.5-6.7,9.1c-1.3,1.1-0.6,2.9-0.4,4.4c0.9,6.5-1.3,12.4-3.5,18.2c-0.4,1.1-1.6,2.9-3.5,2.5
		c-3.2-0.7-5.3,1.5-7.7,2.7c-3.2,1.7-5.4,4.2-4,8.3c1.2,3.4-1.5,6.5-3.2,7.8c-2.1,1.6-2.4,3.1-2.7,5.1c-0.7,4.4-2.9,5.9-9.4,6.6
		c0.2,0.9,0.2,2,0.7,2.7c2.2,3.4,1.5,5.5-2.4,6.7c-1.1,0.3-2.3,0.5-3.4,0.6c-1.4,0.1-2,0.7-2.1,2.1c-0.3,3.6-0.4,3.6-4.4,3.8
		c-0.6,1.9,2,2.6,1.6,4.6c-0.4,1.9,0.6,4-1.9,5.5c-1.7,1-0.8,3.3,1.9,4.1c3.1,0.9,2.9,1.8,1.3,4.2c-2.8,4-1.4,9,2.9,11.7
		c1.9,1.2,4,2.3,6.5,2.9c-4.4,2.7-8,1.3-11.4-1c-0.9-0.6-1.7-1.5-2.7-1.2c-3.1,0.9-3.8-2.7-3.9-3.2c-0.3-4.3-4.6-4.4-6.6-7.1
		c1-4.1,0.6-5.2-3.3-7.6c4.3-4.3-0.7-8-0.3-11.9c-1.9-0.2-1.1,1.3-1.8,1.8c-0.2-0.1-0.4-0.2-0.5-0.3c-1.3-3.5-0.6-7.5-2.7-10.8
		c-0.3-0.5-0.4-1.3-0.3-1.8c1.7-6.6,0.2-13-1-19.4c-0.2-1.1-0.3-2.2-0.2-3.4c0.6-6.8-0.5-13.6-0.8-20.3c-0.2-4.4-2.9-7.2-6.6-9
		c-4.5-2.2-8-4.7-10.2-9.6c-2.1-4.7-4.8-9.2-7.3-13.7c-1-1.7-3-2.3-3.6-4.2c-1-2.9-0.8-3.5,2.3-7.5c-2.3-1.2-2.5-3-1.8-5.4
		c1-3.2,3.4-5.4,5.3-7.9c2.2-2.9,3.4-8.5,1.7-11.9c-0.3-0.7-1.1-1.3-1.1-1.9c-0.1-1.5,0-3.1-2-2.8c-1.6,0.2-2.5,1.6-2.3,3.4
		c0,0.2-0.3,0.4-0.4,0.6c-4.2-1.3-7.1-4.9-11.2-6.5c-0.6-0.3-0.6-1-0.6-1.6c-0.2-2.6-4-7-6.3-7.5c-3.7-0.7-6.9-1.8-9.2-5
		c-1.3-1.9-3.3-2.8-5.6-1.1c-0.8,0.6-1.8,0.7-2.9,0.2c-5.5-2.3-11-4.7-15.7-8.5c-0.9-0.7-1.8-1.6-1.4-2.5c2.5-5.9-2.4-9.1-4.4-13.5
		c-1.9-4.3-6-7.6-5.7-12.8c0.1-2-0.9-2.7-2.8-2.9c-1.2,1.7-1,3.4-0.5,5.5c1.2,4.5,4.3,8.6,3.8,13.6c-1.5,0.3-2.7-1.2-2.5-1.7
		c1.2-3.6-1.8-4.5-3.9-6.2c1.4-2,1.6-3.7,0-6c-1.3-1.8-1.6-4.6-1.1-6.9c0.5-2.4-0.5-3.6-2.4-4.3c-2.2-0.8-2.9-2.5-3.3-4.5
		c-1.3-7.3-0.1-13.9,5-19.7c2.6-2.9,5.4-5.8,6.4-9.8c0.5-1.9,1.6-1.6,2.9-1.3c1,0.8-0.6,1.4-0.1,2.2c3.7-3.9,3.4-6-1.1-9.7
		c-0.4-5.7,1.2-11.1,1-16.3c-4.9-3.3-10.5-4.3-15.6-6.4c-1.1-0.5-2.2-0.3-3.2,0.5c-2.5,2-5.7,1.9-8.7,2.2c1.9-1.6,3.5-3.7,6.4-3.6
		c-10,2.8-18.4,9.7-29.1,10.6c2-1,3.9-1.9,5.9-2.9c-0.2-1.9-1.1-2.7-2.8-2.3c-1.2,0.3-1.3-0.2-1.1-1.1c0.4-0.2,0.9-0.4,0.9-1
		C15.3,52,14.7,52,14.1,52.5z M172.9,78.6c-2.5,1.9-4.4,3.5-6.6,5.2c2.2-0.4,2.6,0.3,1.6,1.8c1.7-0.3,1.1-1.9,1.7-2.9
		c0.5-0.8,1.5-1,2.4-0.4c1.2,0.9,0.9,2.1,0.6,3.3c0,0,0.1-0.1,0.4-0.5C172.9,83.4,172.9,81.4,172.9,78.6z M175.5,334.5
		c-0.8,0.3-1.7,0.3-0.9,1.6C175,335.7,175.7,335.5,175.5,334.5z"/>
	<path class="st0" d="M617,233.4c-1.7,1.9-2.4,4.2-3.5,6.2c2.8,2.9,5.8,5.4,9.4,7.1c6.4-4,3.3-12.1,7.8-17.3
		c0.6,2.5,1.6,4.5,1.3,6.8c-0.1,0.6,0.1,1.6,0.4,1.8c4.7,2,3,6.2,3.4,9.6c0.2,1.6,0.5,3,2.1,3.8c2.3,1.1,3.2,3.1,3.6,5.4
		c0.4,2.2,2,4,3.1,5.5c3.8,4.8,1.9,9.4,0.2,13.9c-2.4,6.4-8.5,10-12.7,15c-0.3,0.4-0.9,0.7-1,1.1c-1.8,5.3-7.1,5.4-11.2,7.4
		c-1.2,0.6-1.3,0.4-3.6-1.4c-1.4,0.1-2.2,1.7-3.7,1.7c-3-0.1-4.9-2.1-5-5.3c-0.1-5.2-0.5-5.8-5.7-7c-0.7-0.2-1.1-0.5-1.5-1.1
		c-3.4-4.6-6.8-5.8-12.2-3.8c-2.9,1.1-6.4,0.3-8.8,2.3c-3.1,2.5-6.5,2.9-10.3,2.7c-2-0.1-3.7,1.2-5.3,2.2c-1.3,0.8-2.7,1-4.1,0.6
		c-1.4-0.4-2.5-1.9-1.6-2.9c3.7-3.6,1.2-8.1,2-12.1c0.5-2.4-1.1-5.1,0.5-7.9c0.7-1.3-0.8-3.2-0.4-5.1c1.3-4.9,5.3-6.6,9.4-8.2
		c2.6-1,5.4-1.3,8.1-2.3c2.5-0.9,4-3,4.7-5.5c0.4-1.2,0.5-2.7,2.7-2c0.9,0.3,2.4-1.1,2.8-2.1c1.3-3.1,4.3-3.9,6.7-5.5
		c1.8,1.1,2.5,3.5,4.9,2.5c1.8-2.8,2.8-5.8,7.1-7C610.7,231.4,613.5,234,617,233.4z"/>
	<path class="st0" d="M202.3,40c-1.3-1-1.3-2.6-3.1-2.9c-1.2,0.7-2.5,1.8-1.2,3.1c2.1,2,1,3.5-0.1,5.3c-1.8,0.1-3-1.3-4.8-2.1
		c0.3,1.4,0.4,2.5,0.6,3.5c-0.5,0-1-0.7-1.9-0.7c-2.1-0.1-4.4-0.1-5-3.1c-0.2-1-1.6-2-3.4-1.7c-1.8,0.2-3.7,1.1-5.9,0.1
		c1.3-1.9,2.9-2.1,4.7-1.8c4.1,0.7,5.9-3.3,9.2-4.3c0.6-0.2,0.6-1.1,0.5-1.7c-0.4-1.7-6.2-5.3-7.9-4.7c-3.2,0.9-6.2,0.6-9.4-0.2
		c-1.6-0.4-2.6-1.4-3-2.7c-0.4-1.5,1.2-2.2,2.4-2.8c2-1.1,4.1-2,6.7-1.3c-1.2,1.4-4.9,1.5-3,4.9c2.8-4.2,6-5.5,9.8-4.3
		c0.7,1.6-1.5,1.4-1.6,2.8c1.7-0.7,3.4-0.3,5-1.1c1.6-0.7,3.1-1.2,4.2,1.4c0.7,1.6,3.4,1.7,5.4,2c1.4,0.3,2.6,0.8,2.9,2.1
		c0.3,1.4-1.5,1.4-2.2,2.2c0.5,1,1,1.9,2.2,2c2.1,0.1,3,1.2,3.1,3.1c0.2,2.2-2,1.9-3.2,2.6C203.2,39.8,202.8,39.8,202.3,40z"/>
	<path class="st0" d="M643.6,217.8c0.3,1.6-1.5,1-1.5,2c1.6,3.4,4.4,5.9,7.7,9c-4.4-0.8-7.8-1.1-9.7-5.2c-1.5-3.3-5.1-2.9-7,0.3
		c-1,1.7-3.7,2.1-5.6,0.6c-1.6-1.4-3.5-2-5.7-2.6c2.2-2.3,1.3-4.8-0.5-6c-3.3-2.3-6.9-4.5-11.5-3.8c-0.9-0.7-0.1-2.1-0.8-3.1
		c2.6-1.4,4.6-0.3,6.2,1.5c0.4-0.1,0.8,0,0.9-0.2c4-5.9,8.9-3.3,13.5-1.1c1.5,0.7,2.8,1.4,4.5,1.6c1.5,0.2,3.1,0.9,3.9,2.2
		C639.5,215.2,641.5,216.7,643.6,217.8z"/>
	<path class="st0" d="M557.2,198.1c3.9-0.3,5.6-4.1,8.8-5.5c3.3-1.4,5.1-4.1,6.6-7.1c0.4-0.9,1.9-0.9,2.3,0c0.8,1.8,2.8,1.6,3.8,2.9
		c-5.7,6-5.7,6.4-0.1,10.9c-2,0.6-2.8,1.6-3.4,3.6c-0.7,2.7-2.9,5.1-3.4,8.1c-0.1,0.4-2,1.2-2.3,0.9c-2.8-2.4-6.4-1.5-9.5-2.5
		c-0.3-0.1-0.7-0.3-0.9-0.6C557.8,207.6,556.6,200,557.2,198.1z"/>
	<path class="st0" d="M419.3,232.3c1.7,4,2.1,7,0.9,10.9c-2.1,6.3-4.5,12.5-6.2,19c-0.6,2.3-2,3.6-4.4,4.1c-1.7,0.4-3.6-0.2-3.8-1.6
		c-0.5-3.1-2.4-6.3,0.1-9.4c1.6-2.1,2.2-4.2,1.3-7c-0.6-2-0.2-4.8,2.8-5.8C414.8,241.1,416.7,237,419.3,232.3z"/>
	<path class="st0" d="M115.5,25.1c4.6-3.7,10-6,16.5-4.3c0.7,0.2,1.4,0.2,2,0.9c1.8,1.9,4.3,2.6,6.8,2.1c1.7-0.3,1,1.1,1.7,1.6
		c1.5-0.7,2.3-3.2,5-1.8c-1.1,2.5-0.3,5.7-3.6,7.4c-0.5,0.3-1.1,1-1.6,0.7c-3.1-1.5-6.2,0.1-9.3-0.1c-2.4-0.1-4.4,1-7,0.8
		c-0.1-1.1-0.2-2.1-0.3-3.1c2-0.8,4-0.1,6.5-0.6c-2.9-1.9-5.9-0.1-8.6-1.2c1.1-1.1,2.3-0.6,3.2-1.1c-1.2-2,0.1-2.5,2.1-3.1
		c-2.6,0-4.6,1-6.5,1.9C119.9,26.7,117.6,27.4,115.5,25.1z"/>
	<path class="st0" d="M524.4,188.1c4.9-0.5,7,3.2,9.9,5.5c3,2.4,5.5,5.4,8.9,7.4c1.3,0.8-0.3,2.4,1.3,3.8c3,2.6,5.6,6,3.5,11
		c-1.3,0.6-2.6,0.7-4.2-0.9c-3-2.9-5.4-6.1-7.3-9.9c-2.5-5.1-5.4-10.1-10.1-13.7C525.3,190.6,524.3,189.7,524.4,188.1z"/>
	<path class="st0" d="M301.6,71.2c1.6-1,1.4-3,3.4-4c1.7-0.8,0.4-2.7-0.7-2.9c-3.6-0.5-2.5-3.5-3.1-5.3c-0.6-2,1.1-2.9,3.1-2
		c0.6,0.3,1.2,0.3,1.8,0.3c0.6,0,1.3,0.1,1.9,0.1c0.5,1.6-1.3,2.2-1.3,3.4c3.4,2.3,4.3,6.3,6.9,9.1c0.9,1-0.9,3.5-2.6,3.6
		c-3,0.2-6.1,0.4-9.3,1.5c0.1-1.6,1.1-2.1,2-2.7C303.4,71.5,302.4,71.8,301.6,71.2z"/>
	<path class="st0" d="M602.7,98.4c4.8,1,5.4,2.2,5.6,6c0.2,2.6,1.3,5.2,2,7.8c-6.1,2.3-12.7,0.7-18.9,4.2c2.2-4.6,3.5-5.2,7.9-4.7
		C602.9,107.9,607.7,104.4,602.7,98.4z"/>
	<path class="st0" d="M648.8,318.2c6.3-5.8,15.7-6.2,21-12.8c1.4,0,2.1,0.9,3.1,1.4c-1.6,2.6-4.2,3.8-6.7,5
		c-3.8,1.9-6.9,4.7-10.5,6.7C652.8,320.2,652.7,320.1,648.8,318.2z"/>
	<path class="st0" d="M581.9,211.5c-1.4,0.7,0.6,3.6-1.6,4.8c-1.9-5.3-1.6-10.3,0.7-15.1c0.6-1.4,1.8-2.5,4-2c2.3,0.5,4.7,1.2,7.6-1
		c-0.9,2.6-2.2,3.1-4,2.9c-1.3-0.2-2.6-0.4-3.8-0.3c-1.1,0.1-2.5-0.5-3.2,0.8c-0.9,1.5,0.2,2.6,1.1,3.8c1.6-0.3,2.9-1.8,4.9-1.2
		c-0.4,1.5-2.1,1.6-2.9,2.8c1.4,2,2.5,4.2,0.7,6.8C583.7,213.6,584.7,211.1,581.9,211.5z"/>
	<path class="st0" d="M681.3,290.9c2.3,2.1,0.3,8,6.8,7.1c-4.2,3.1-8.4,6.2-12.6,9.3c-0.4-2.3,3.7-3.3,0-5.7
		c3.9-1.2,4.9-4.6,6.9-6.7C682.7,293.2,679.7,292.6,681.3,290.9z"/>
	<path class="st0" d="M565.8,223.2c-4.5,0.7-8.5-1.9-12.9-1.9c-1,0-2.2-0.3-2.9-1c-0.7-0.6-2.3-1.2-1.6-2.6c0.6-1.2,1.8-0.7,2.7-0.5
		c1,0.2,2,0.5,2.8,1.1s1.7,1.2,2.4,1c3.8-1.4,6.7,0.8,9.8,2.1c0.8,0.3,1.5,0.3,1.3,1.3C567.3,223.8,566.5,223.6,565.8,223.2z"/>
	<path class="st0" d="M291.5,71c0.3-1.5,1.9-2.3,1-4c-0.4-0.8,0.1-1.7,1.3-1.7c0.5,0,1.1-0.2,1.4-0.5c1.4-1.2,2.6-3.1,4.6-1
		c1.1,1.2-0.7,5.9-2.6,6.4C295.5,70.8,293.9,72.9,291.5,71z"/>
	<path class="st0" d="M141.8,150.9c-3.4,0.4-5.9,1.6-8-1.3c-1.5-2.1-3.9-3-6.4-3.6c-1.2-0.3-2.6-0.5-2.4-2.3
		C131.1,144,129.2,143.4,141.8,150.9z"/>
	<path class="st0" d="M578,105.5c0.4-0.1-2.6-5.8-7.3-5.3c-5.5,0.6,15.3-20.8,11.2,3.5c-0.4,2.3,7,3.9,7.5,7.4
		c-1.1,0.5-3.5,2.7-4.6,3.2c-1,0.4-2.8-2.5-3.2-3.5C580.8,108.2,579,108.2,578,105.5z"/>
	<path class="st0" d="M619.5,305.7c-1.5,3.1-4,4.6-6.5,6c-1.6,0.9-2.2-0.1-2-1.4c0.2-1.6,0.7-3.1,1.2-4.9
		C614.5,305.9,616.8,306.1,619.5,305.7z"/>
	<path class="st0" d="M581.9,167c-3.5-3.8-4.1-6.1-3-11.7c3.7,0.3,5.2,2.7,3.5,5.6c-0.6,1.1-1,1.9-0.4,3.1
		C582.4,164.8,582.9,165.8,581.9,167z"/>
	<path class="st0" d="M600.1,94.6c1.4-2.1,1.8-3.9,0.1-6.1c3.3,1.3,6.7,1.7,10.2,4.3c-2.4,0-3,1.2-3.7,2.4
		C604.6,94.4,602.6,93.3,600.1,94.6z"/>
	<path class="st0" d="M154.2,155c-2.4,0.6-4.6,0-6.6,1.3c-0.7,0.5-2.3,0.1-2.6-1.4c-0.2-1-0.5-2-0.8-3.1
		C148,151.1,151.3,151.8,154.2,155z"/>
	<path class="st0" d="M593.1,178.1c1.9,1.4,1.8,3,2.2,4.4c0.2,0.8,0.4,1.8-1.4,1.8c-2,0,0.5,2.2-1.1,2.8c-3.1,0.1-2.8-2.5-3.2-4.4
		C588.9,179.8,592.1,179.9,593.1,178.1z"/>
	<path class="st0" d="M490.1,178c2.5,1.6,3.1,3.9,3.4,6.4c0.2,1.3-0.8,2-2.1,2.2c-1.3,0.2-1.8-0.5-2.1-1.6
		C488.9,182.6,488.4,180.3,490.1,178z"/>
	<path class="st0" d="M165.9,38.5c2,1.5,4.9,2,5.9,5.3c-3.1-0.4-6.1-1.3-8.9,0.8C162,41,165,40.3,165.9,38.5L165.9,38.5z"/>
	<path class="st0" d="M596.3,76.2c-0.4,1.3-0.7,2.3-1.1,3.5c-2.2-1.8-2.9-4.4-4.6-6.2c-1.7-1.8-4.3-2.9-4.5-6.6
		C590.2,69.7,592.6,73.8,596.3,76.2z"/>
	<path class="st0" d="M606.5,205.1c1.8-2.5,4.1-2.2,6.3-0.9c1,0.6,1,2.2-0.1,2.9C609.7,209.3,608.4,206.2,606.5,205.1z"/>
	<path class="st0" d="M577.1,145.3c-2.4-3-2.2-4.3,0.6-7C578.9,140.8,578.8,141.9,577.1,145.3z"/>
	<path class="st0" d="M63.5,79.9c-2.9-1.3-4.1-3.2-5.1-5.7C62.8,74.5,63.6,75.4,63.5,79.9z"/>
	<path class="st0" d="M594.4,122.5c-3.1-0.6-2.4-4-4.7-5.4C594.3,116.7,594.7,117.2,594.4,122.5z"/>
	<path class="st0" d="M191.9,206c0.1-1.1,0.3-2.2,0.4-3.3c1.5-0.8,2.9-0.5,4.3-0.1c0.5,1.2-0.5,1.9-0.6,2.8l0.1-0.1
		c-1.3,0.1-2.3,1.6-3.8,0.8C192.1,206.2,192,206.1,191.9,206z"/>
	<path class="st0" d="M335.1,105.6c2.6,0,4.2,0,5.9,0c0.6,0.9,0,1.9,0.3,3.2C339,108.2,337.4,107.3,335.1,105.6z"/>
	<path class="st0" d="M327,102.9c0.8-1.9-1.1-3.8,1.2-4.9c0.7-0.3,1.3,0.2,1.4,0.8C329.8,100.5,330.4,102.4,327,102.9z"/>
	<path class="st0" d="M605.8,211.2c-2.4-0.3-4.2-0.6-6-0.8c0-0.3,0.1-0.6,0.1-1C601.8,209.4,603.7,208.5,605.8,211.2z"/>
	<path class="st0" d="M155.8,31.9c-1.9,0.2-2.9,2-4.5,0.8c-0.8-0.6-0.3-1.3,0.3-1.8C152.9,29.8,154.2,29.6,155.8,31.9z"/>
	<path class="st0" d="M389.6,35.9c-0.6-0.2-1.3-0.4-0.9-1.2c0.2-0.3,0.7-0.7,0.8-0.6c0.6,0.2,0.4,0.8,0.4,1.3
		C389.9,35.5,389.7,35.7,389.6,35.9z"/>
	<path class="st0" d="M358.3,99.2c0.1,0.1,0.1,0.1,0.2,0.2C358.4,99.3,358.4,99.2,358.3,99.2L358.3,99.2z"/>
	<path class="st1" d="M378.8,89.6c1.5-0.7,2.4-1.1,3.2-1.5c0.4-1.6-1.2-2-1.5-3.2c2.6-1,5.1-2.1,8.3-2.5c-1,2-1.8,3.8-2.8,5.8
		c3.2,1,5.6,3.1,8.4,4.6c1.4,0.7,2.4,1.9,2.1,3.3c-0.3,1.5-2,1.9-3.4,2c-2.8,0.1-5.6,0-8.2-1.3c-3-1.5-5.7-1.2-9.1-0.1
		c-2.8,0.9-5.3,3.3-9,2.8c-0.2-5.2,1.6-9.7,4.4-13.8c1.7-2.5,4.9-1.7,6.4,1.2C378,87.7,379,88.1,378.8,89.6z"/>
	<path class="st1" d="M462,98.8c-2.9,2.8-7.9-1.4-9.8,3.7c0.3,0.4,0.6,1,1.1,1.6c0.8,1,1,2.3-0.1,3c-1,0.7-2.5,0.9-3.1-0.8
		c-0.4-1-1.4-1-2.1-1.4c-3.2-1.8-6.4-3.4-9.1-6.2c-1.6-1.7-4.3-3.1-6.8-4.1c-2.4-1.1-3.4,1.3-4.4,2.9c-1.7-1.2-4-8.3-2.8-9.3
		c1.5-1.3,3.5-2.1,5.6-1c1.4,0.7,2.9,1.3,4,2.3c2.2,2.1,4.7,2.4,7.4,2.1c2.3-0.3,3.7,0.8,4.6,2.6c1,2.1,2.4,3.5,4.8,3.7
		c0.5,0.1,0.8,0.4,1.4,0.2C456.7,96.7,459,96.9,462,98.8z"/>
	<path class="st1" d="M355,79.1c-3.6-0.8-6.9,3.8-11,0.7C348.5,76.4,352.5,76,355,79.1z"/>
	<path class="st1" d="M357.4,98.3c-1.7-1.2-4.2,1.8-5-1.2c-0.5-1.6,1.1-2.1,2.4-2.3C357,94.6,357.7,95.8,357.4,98.3z"/>
	<path class="st1" d="M370.7,36.9c-0.7-0.1-1.5-0.1-2-0.9C369.6,35.6,370.3,36,370.7,36.9L370.7,36.9z"/>
	<path class="st1" d="M379.9,127.3c-0.2-0.2-0.4-0.3-0.4-0.5c0-0.3,0.2-0.4,0.3-0.1C379.9,126.9,379.8,127.1,379.9,127.3
		L379.9,127.3z"/>
	<path class="st1" d="M595.7,30.7c0.2,0.2,0.7,0.6,0.6,0.6c-0.4,0.5-0.8,0.3-1.2,0C595.3,31.1,595.5,30.9,595.7,30.7z"/>
	<path class="st1" d="M335.9,213.8c0.1-0.1,0.3-0.3,0.4-0.4c0,0.2,0,0.3,0.1,0.5C336.2,213.9,336,213.8,335.9,213.8
		S335.9,213.8,335.9,213.8z"/>
	<path class="st1" d="M172.9,78.6c0,2.8,0,4.8,0,6.5c-0.3,0.4-0.3,0.5-0.4,0.5c0.3-1.2,0.6-2.4-0.6-3.3c-0.8-0.6-1.9-0.4-2.4,0.4
		c-0.6,0.9,0,2.6-1.7,2.9c1.1-1.5,0.7-2.2-1.6-1.8C168.5,82,170.5,80.5,172.9,78.6z"/>
	<path class="st1" d="M164.1,22.9c-0.5,1.5-0.5,3.4-3.1,2.4c0.2-1.5,0.6-2.8,2.5-3C163.7,22.6,163.9,22.7,164.1,22.9z"/>
	<path class="st1" d="M192.2,206.3c1.5,0.8,2.5-0.7,3.8-0.8C195.5,208.8,193.6,206.6,192.2,206.3z"/>
	<path class="st1" d="M175.5,334.5c0.1,1-0.5,1.2-0.9,1.6C173.8,334.8,174.7,334.8,175.5,334.5z"/>
	<path class="st1" d="M14.1,52.5c0.5-0.5,1.1-0.4,1.7-0.2c0,0.6-0.5,0.8-0.9,1C14.7,53.1,14.4,52.8,14.1,52.5z"/>
	<g>
		<g>
			<g class="st2">
				<rect x="220.7" y="0.3" class="st3" width="262.9" height="137.9"/>
			</g>
		</g>
	</g>
	<g>
		<g id="Layer_1_1_">
			<defs>
				<rect id="SVGID_1_" x="220.7" y="0.3" width="262.9" height="137.9"/>
			</defs>
			<clipPath id="SVGID_2_">
				<use xlink:href="#SVGID_1_"  style="overflow:visible;"/>
			</clipPath>
			<g class="st4">
				<g>
					<path id="SVGID_3_" class="st0" d="M386.7,119c1.8,3.6,3.6,7.2,5.4,10.9c1.1,2.3,3.3,4.2,3,7.1c0,0.1,0,0.4,0.1,0.4
						c6.4,3.5,3.3,11.8,8.7,15.8c1.2,0.9,1.8,2.4,1.9,3.8c0.2,1.6,1,2.8,2.3,3.7c4,2.7,7.5,5.6,8.8,10.5c1.2,4.3,5.9,3.3,8,2.4
						c4.1-1.7,8.8-0.6,12.4-3.4c1.4,1.5,0.9,3.2,0.5,4.6c-2.6,7.9-5.7,15.7-11.8,21.8c-2.8,2.8-6.5,4.8-9.1,7.8
						c-4.2,5.1-9.9,9.8-10.5,16.4c-0.4,4.1-0.3,9,1.9,13.3c2.4,4.8,1.9,10.1,1.3,15.2c-0.3,2.1-1.9,4.2-4.2,4.9
						c-4.3,1.3-6.7,4.9-9.9,7.4c-1.7,1.3-1.8,2.8-1.3,4.7c2,8.6,1.9,8.6-5.6,12.9c-0.5,0.3-1,0.7-1.4,1.1c1,3.8,0.2,6.9-2.7,9.8
						c-3,3-5.1,6.8-8.3,9.7c-3.2,2.9-7,4.4-11,4.4c-3.4,0-6.6,0.7-9.8,1.3c-3.4,0.5-6.6-1.3-6-4.3c1-4.7-1.7-8.6-3.9-11.6
						c-3.2-4.5-4.8-9.3-5-14.2c-0.2-5.6-2.9-10.1-5.4-14.6c-3.9-6.8-1.5-12.8,1.6-18.5c1.5-2.9,1.6-5,1.1-8.1
						c-0.8-5.3-3.2-10.4-2.8-15.9c0.2,0,0.4,0.1,0.6,0.1c0-0.2,0-0.3-0.1-0.5c-0.2,0.2-0.3,0.3-0.5,0.5c-3.8-0.8-4.9-4.4-7.3-6.6
						c-3.1-2.8-1.2-6.2-0.5-9.4c1.2-1.2,2.9-0.3,4.3-0.9c0.5-2.9,0.5-2.9-3-3.8c-0.8-5.7-3-7.3-8.5-6.3c-1.6,0.3-2.7,0.5-3.7-1.3
						c-2.6-4.6-4.4-5.4-9.5-3.7c-5.7,1.9-11.4,3.6-17.5,3c-1-0.1-2.2,0-3.1,0.5c-4.7,2.6-8.2,1.3-11.7-2.3c-1.7-1.8-3.6-3.6-5.9-4.8
						c-0.8-0.4-1.8-1.1-1.9-1.8c-0.7-5.3-5.7-7.8-8.3-11.8c-1.9-2.9-2.2-6.5-1.1-9.7c2.1-5.7,2.6-10.9,1.1-16.6
						c1.4-1.1,3.2-0.5,4.7-0.6s3,0,4.7,0c0.9-2.2,0.5-4.5,2.5-6.4c1.6-1.6,0.3-4.2,1-6.5c2.5-1.1,5.3-0.1,8-0.7
						c0.9-1.4,1-2.9,0.4-4.7c-3.1,0-6.2,0-10.2,0c2.1-1.5,3.5-2.5,4.9-3.5c2.1-1.4,3.5-3.1,3.3-5.8c-0.2-2.8,1.2-5.6,3.5-6.7
						c3.6-1.8,5.8-4.4,7.6-8c5.2,3.7,10,2.3,14.8-0.4c4-2.3,8.5-2.8,13.1-2.1c4.4,0.6,8.7-1.3,13.3-0.5c-0.8,2.7,3.4,5.8-1.8,7.8
						c2.5,2.7,5,3.8,8.2,4c2.6,0.2,4.4,1.1,6.4,3.1c2.3,2.2,6.2,3.1,9.6,4c1.2,0.3,1.9-1.2,1.9-2.8c0.1-3.9,3.8-5.8,7.1-3.6
						c4.6,3.1,10.2,3,15.3,4.7c1.3,0.4,2.3-0.3,3.4-0.8c1.1-0.4,2.2-1.1,3.5-0.5c3,1.3,6,2,8.3-1.2c0.1-0.1,0.8,1.2,2.1,0.5
						c-2.6-4.9,1.7-9.8-0.3-14.8c-1.8,0.3-3.8-0.2-5.3,1.4c-0.3,0.3-1,0.5-1.2,0.4c-4.2-2.8-9.5-0.4-13.8-2.6
						c-0.1-0.1-0.3,0-0.4-0.1c-1.5-0.7-1.7-2.3-1.8-3.3c-0.2-2.4-3.2-4.2-1.3-6.9c-2.8-1.5-5.7-1.5-8.5,0l0.1-0.1
						c-1.9,1.6-1.3,4.2,1.7,6.6c-1.7,1-3.1,2.2-2,4.4c-2.1,0.1-3.5-0.5-3.6-2.1c-0.2-2.8-2.1-4.6-3.8-6.4c-3-3.2-2-6-0.1-9
						c-0.6-1.1-2.1-2.1-2.6-1.7c-4,3.4-6.8-0.6-8-2.3c-1.6-2.1-4.4-2.1-5.5-4.4c-0.4-0.8-2.3,0-2.8,0.6c-1,1.3-1.1,3.2,0.2,4.4
						c3.6,3.3,6.5,7.3,11.6,8.8c-2.6,3.7-2.5,3.4-5.9,1.3c-4.6-2.8-9.4-5.1-12.1-10.1c-1-1.9-3.6-1.3-5.2-0.1
						c-2.4,1.7-4.6,3-7.8,1.6c-1.8-0.8-4,0.4-3.7,2.5c0.5,2.9-1.7,3.1-3.3,3.8c-3,1.4-5.2,3.1-5.4,6.7c-0.1,2.8-4.7,6.4-7.8,6.5
						c-2.3,0-4.5,0.3-6.6,2.2c-1.2-3.5-3.8-3.8-6.8-3.1c-0.9-3.3-2-6-0.1-9.3c1.4-2.4,0.5-5.4,0.3-8.2c3.9-2.9,8.2-0.7,12.3-1.2
						c2.3-0.3,5.5,2.5,6.8-1.7c1.4-4.6,0.2-8-3.7-10.2c-1-0.6-2.6-0.3-2.6-2.3c2-2.3,5.1-0.1,7.7-1.4c2.3-1.1,4.8-2.3,6.6-3.7
						c1.7-1.4,3.5-2.8,5.4-3.7c4.1-1.9,6.4-6.6,12.3-6.1c-1.3-4.1-3.7-8.3,2.3-10c1.6,2.4,0.1,4.4-1.5,6.2c0.7,1.9,3.3,3.3,3.6,3.2
						c3.9-1.6,8.2,1.4,11.9-1c1.2-0.8,2.7-1.5,3.8-0.8c2.9,1.7,4.8,0.3,7-1.4c-0.9-2.4-1.7-4.9,1.3-6.5c1.8-0.3,2.5,2,4.3,1.4
						c2.6-2.3-0.7-3.3-1.4-5.2c3.9-3.5,9.6,0.6,13.1-2.9c-2.4-2.1-5.4-1.5-8.5-0.9c-8,1.6-8.2,1.5-10.4-6.4c2.7-1.8,5.5-3.7,7.8-6.2
						c-3.7-2.7-6.1-2.4-7.9,1.3c-0.5,1.1-1.2,1.9-2.3,2.5c-7,3.9-7,3.9-3.4,10.8c-1,1.1-3.2,1.8-2.9,3.5c0.7,4.5-3.2,5.5-5.7,7.5
						c-1.4,1.1-2.2-0.1-3.2-0.4c-1.8-0.4-0.2-1.1-0.2-1.7c-0.2-2.7-1.4-5.1-2.9-7.4c-0.5-0.8-1.6-1.1-2.7-0.1s-2.5,1.7-3.8,2.3
						c-3.1,1.3-5.1,0-5.3-3.2c0-0.3,0-0.6,0-0.9c0-1.7-2.2-3.3-0.9-4.7c1.7-1.7,3.9-3.1,6.1-4.2c4.4-2.2,7.6-5.6,11.3-8.7
						c4-3.4,7.2-9,14.2-8.7c3.4,0.1,6.7-1.8,10.4-1.8c2.9,0,5.2-0.2,7.6,2.1c1.3,1.2,4.2,1,6.5,1.2c4.9,0.3,9.4,2.3,13.9,3.8
						c1.1,0.3,2.6,0.6,2.3,2.2c-0.2,1.4-1.5,1.7-2.7,2c-2,0.4-3.9,0.2-5.9-0.2c-2.2-0.4-4.4-0.9-6.7-0.6c-0.4-1.1-1.1-1.5-2.3-1.1
						c0.5,0.9,1.5,0.9,2.3,1.1c0.7,1.2,2.4,0.7,3,2.3c1.8,4.2,3.4,4.6,7.8,3c1.2-0.4,2.7-0.2,4-0.3c0.7-1.1-1-1.4-0.6-2.7
						c1.9-0.8,3.5-2.6,6.3-1.6c1.6,0.6,1.4-1.1,1.9-1.8c0.1-0.2,0.3-0.4,0.4-0.6c2.3,0.9,4,1.6,6.7-0.6c2.4-2,6-3.7,10.5-2.2
						c2.8,0.9,6.5-1.4,10-0.8c1.7-4,5-2.7,7.8-2.1c3.2,0.7,6.4,1.8,9.6,2.7c0.4,0.1,0.8,0,1.9,0c-3.6-3.1-10-4.7-4.7-10.8
						c2.5,0.4,6-1.5,6.7,3.6c0.2,1.1,2.2,3.1,3.5,4.7c1.6,2.2,2.1,4.4,0,6.5c4.1,2.3,4.9,1.7,7.6-4.9c1.6-0.4,1.9,1.1,2.8,1.7
						c0.9,0.6,1.7,1.3,2.8,1.2c-2-3-3.6-4.5-6.6-4.1c-4,0.5-5.1-1.2-5.3-4.5c1.5-0.6,3.2-0.1,4.8-0.4c-0.1-1.1-1.3-0.3-1.7-0.9
						c5-2.5,5-2.5,15.2,3.3c-1.3-5.3-7.6-3.9-10.3-7.3c1.3-1.5,2.9-0.6,4.3-0.9c2-0.4,3.5-0.8,5.2-2.5c3.1-3.1,8.1-2.6,12.4-3
						c3-0.2,5.9,0.5,8.3-2.2c0.5-0.6,2.4-0.6,3.5-0.4c5.7,1.3,11.6,0.7,17.3,1.8c1.7,0.3,3.6,0.6,4.6,2.4c-1.7,1.9-4.7,2-5.8,4.6
						c3.3,0,6.3-1.2,9.6-1c10.4,0.6,20.8,1.8,30.9,4c5.8,1.3,11.3,1.7,17,1.1c2.3-0.2,5.2,2,6.4-2.2c0.4-1.3,3.7-0.6,5.6-0.2
						c3.2,0.6,6.4,0.9,9.7,0.9s6.7,1.4,10,2.5c1.9,0.6,3.8,0.8,5.8,0.5c5.1-0.7,9.9-0.5,14.3,2.5c2.8,1.9,6.4,1.1,9.4,1.1
						c4,0,8,0,12,0.7c0.5,0.4,0.9,0.7,1.4,0c0,0-0.5-0.5-0.8-0.7c5.5-2.2,11.1-1,16.4,0.4c7.4,1.9,15.3,2.3,22.2,6.1
						c2.1,1.1,4.1-0.8,6.2,0.1c1.8,0.7,3.7,1,5.8,1.6c-0.2,1.5-0.4,2.8-0.6,4c-5.8,0.9-11.2-6-16.7-0.1c2,1,3,3.7,6.2,4.1
						c-3.4,2-6.6,3.9-8.3,7.7c-4.7-2.4-8.9,0.6-13.6,0.4c1.2,2.9,1.9,5.3,5.6,6.4c3.1,1,3.6,5.4,6,7.9c-4.8,2.4,1.2,7-2.4,10
						c-4.6-4.1-9.4-8.1-13.9-12.3c-2.2-2-3.1-4.2-1-7.3c1.4-2,0.9-4.9,2.1-7.4c0.9-1.8-1.8-2.8-3.2-4c-1.7,1.3-0.7,3.5-2.8,4.5
						c-2.5-1.7-5.3-3.8-9.5-2.1c-0.3,1.8-2.1,3.7-0.6,6c-0.7,1.1-2.1,1.4-2.5,1.1c-5.9-3.9-12.3,0.1-18.3-1.1c-2-0.4-3.4,0.8-4,2.7
						c-1.1,3.4-2.2,6.8-4.7,10.4c4.9,0,8,4.1,13.1,2.5c1.3-0.4,4.2,1,5.7,3.3c4.9,7.4,8.5,14.8,4.5,23.8c-1.2,2.8-2.6,3.8-5.7,3.4
						c-2.8-0.4-5.8-0.5-7.9,2.4c-0.5,0.7-1.2,2.9-3.3,1.4c-0.9-0.7-1,0.5-1.4,1.1c-2.1,3-4.9,4.9-8.3,5.8c-1-0.7-1.3-1.3-0.9-2
						c0.6-1.2,0.4-2-0.9-2.4c-1-0.3-1.9-0.4-2.8,0.6c-1.5,1.8-2.1,4.6-5.4,4.2c0.5,2.3,1.8,2.7,3.2,2.8c1.7,0.1,1.5,2.2,3.3,2.6
						c2.1-1.5,4.8-1.4,7.5-0.2c0.2,1.5-1.4,1.1-2.1,1.8c-3.2,3-3,4.1,0.1,7.3c3,3.2,7.1,6.2,4.4,11.4c4.8,1,5.6,2.5,3.7,6.3
						c-1.3,2.6-2.1,5.5-3.3,8.1c-1.8,4-5.1,7.7-10.4,8.1c-3.6,0.3-5.9,3.1-9.4,3.8c-1.6,0.3-1.1,2.5-0.2,3.2
						c1.4,1.1,1.2,2.1,0.7,3.4c-0.5,1.2-1.4,1.9-2.7,1.9c-0.8,0-1.4-0.4-1.8-1.1c-0.8-1.3,0-2.2,1-2.9c0.5-0.4,0.9-0.8,1.4-1.2
						c-0.5-2.3-1.2-4.2-4.2-4.3c-2.8-0.1-3.8,1.8-5,3.7c-1.3,2-2.1,3.8-0.1,5.9c1.6,1.7,2.9,3.7,4.9,5.1c4.3,3.3,5.8,7.7,5.5,12.8
						c-0.1,0.9,0.1,1.9-0.6,2.5c-2.8,2.3-6.9,2.8-8.3,7c-4.4-6.2-9.5-9.7-14.4-13.4c-2.7,2.9-2.6,9.4-1.5,12.7
						c1.5,4.8,5.4,7.2,8.8,10.2c0.8,0.7,1.8,1.6,1.8,2.4c0.1,3.3,0.7,6.4,2.5,9.5c-5-0.7-8.8-3.7-9.5-7.7c-0.8-4.6-2.4-8.7-6.2-11.7
						c-1.4-1.1-0.8-2.3-0.6-3.6c1.1-6.9-1.1-15.1-5.5-21.1c-0.3,0-0.6-0.1-0.9-0.1c-1.7,0.5-2.1,3.3-4.8,2.3
						c-3.2-1.1-0.7-3.2-1.3-4.8c-0.8-2.3-1.5-5.1-3.6-6.4c-2.9-1.9-4.2-4.4-5.6-7.2c-1-2-2.1-3.6-3.6-0.1c-0.7,1.7-2.8,1.9-4.3,1.7
						c-2.8-0.3-4,0.3-5,3.3c-0.9,2.7-4.4,4.3-6.5,6.8s-4.3,5.2-7.4,6.8c-1.4,0.7-2.1,1.9-1.6,3.2c1.3,3.8-0.5,7.4-0.7,11
						c-0.2,3.3-2.6,5.7-5.1,9.2c-4.6-6.3-6.7-13.2-9.9-19.4c-3.4-6.4-4.8-13.4-6-20.6c-4.8,3.2-7,2.5-9.3-2.4
						c-1.6-3.5-5.2-5.7-7.6-8.8c-0.7-0.9-2,0-3,0.1c-6.4,0.7-12.6,0.3-19-0.6c-3.4-0.5-2.7-4.4-5.3-4.6c-2.2-0.2-4.2,2.8-6.8,1.1
						c-2.9-1.9-6.4-3.1-8.2-6.5c-2.1-3.9-4.1-4.2-8.4-2c3.3,4.9,6.3,9.9,9.9,14.5c2.6,3.3,7.5,2.9,10.2-0.5c0.7-0.9,1.4-1.9,2.9-2.4
						c1.3,2,1.2,5.2,4.5,5.8c2.6,0.5,4.7,1.8,6.1,4.2c0,0.2,0,0.7-0.3,1c-3.6,4.3-5.3,10-10.5,13.3c-0.7,0.4-1.1,1-2.1,1.2
						c-2.6,0.4-4.9,1.2-6.7,3.7c-1.9,2.7-6.2,2.6-9,4.6c-2.9,2-6.8,1.9-9.9,3.9c-1.6,1.1-3.2,0.2-3.8-1.8c-0.2-0.6-0.2-1.2-0.3-1.7
						c-1-7.7-4.5-14.2-10.4-19.5c-0.3-0.3-0.7-0.7-0.8-1.1c-1-8.5-8.3-13.7-12.1-20.7c-0.9-1.6,0-3.1-0.6-4.7
						c-0.8,1.5-0.5,3.5-2.3,4.3C388.2,122.3,388.6,119.4,386.7,119c-0.1-0.2,0-0.5-0.1-0.7c-0.1-0.3-0.4-0.2-0.4,0.1
						C386.2,118.6,386.5,118.8,386.7,119z M385.4,75.6c0.2-1.8-1-2.2-1.4-3c-1.7-3.3-5.5-4.3-7.5-1.4c-3.3,4.7-5.4,9.9-5.2,15.9
						c4.3,0.7,7.3-2.1,10.6-3.2c4-1.3,7.2-1.7,10.7,0.1c3.1,1.5,6.4,1.7,9.7,1.5c1.7-0.1,3.6-0.5,4-2.3c0.3-1.6-0.9-3-2.5-3.8
						c-3.3-1.7-6.1-4.2-9.9-5.3c1.1-2.3,2.1-4.3,3.3-6.7c-3.7,0.4-6.7,1.7-9.8,2.8c0.3,1.4,2.3,1.8,1.7,3.7
						C388.2,74.3,387.2,74.7,385.4,75.6z M483.5,86.1c-3.5-2.2-6.3-2.4-10.7-0.8c-0.7,0.2-1.1-0.2-1.7-0.3c-2.9-0.3-4.5-1.9-5.7-4.3
						c-1-2.1-2.7-3.4-5.4-3c-3.2,0.4-6.2,0-8.8-2.4c-1.3-1.2-3.1-1.9-4.7-2.6c-2.5-1.2-4.8-0.3-6.6,1.2c-1.4,1.1,1.3,9.4,3.3,10.7
						c1.2-1.9,2.3-4.6,5.1-3.4c2.8,1.2,6,2.8,8,4.8c3.2,3.2,6.9,5,10.7,7.1c0.9,0.5,2.1,0.5,2.5,1.6c0.7,1.9,2.4,1.7,3.6,0.9
						c1.2-0.9,1.1-2.3,0.1-3.5c-0.5-0.7-1-1.4-1.3-1.8C474.2,84.5,480.1,89.4,483.5,86.1z M357.4,63.4c-3-3.5-7.7-3.1-12.9,0.8
						C349.3,67.8,353.1,62.5,357.4,63.4z M360.2,85.6c0.3-2.8-0.5-4.3-3.1-4c-1.5,0.2-3.3,0.7-2.8,2.6
						C355.2,87.7,358.2,84.2,360.2,85.6z"/>
				</g>
				<g>
					<defs>
						<path id="SVGID_4_" d="M386.7,119c1.8,3.6,3.6,7.2,5.4,10.9c1.1,2.3,3.3,4.2,3,7.1c0,0.1,0,0.4,0.1,0.4
							c6.4,3.5,3.3,11.8,8.7,15.8c1.2,0.9,1.8,2.4,1.9,3.8c0.2,1.6,1,2.8,2.3,3.7c4,2.7,7.5,5.6,8.8,10.5c1.2,4.3,5.9,3.3,8,2.4
							c4.1-1.7,8.8-0.6,12.4-3.4c1.4,1.5,0.9,3.2,0.5,4.6c-2.6,7.9-5.7,15.7-11.8,21.8c-2.8,2.8-6.5,4.8-9.1,7.8
							c-4.2,5.1-9.9,9.8-10.5,16.4c-0.4,4.1-0.3,9,1.9,13.3c2.4,4.8,1.9,10.1,1.3,15.2c-0.3,2.1-1.9,4.2-4.2,4.9
							c-4.3,1.3-6.7,4.9-9.9,7.4c-1.7,1.3-1.8,2.8-1.3,4.7c2,8.6,1.9,8.6-5.6,12.9c-0.5,0.3-1,0.7-1.4,1.1c1,3.8,0.2,6.9-2.7,9.8
							c-3,3-5.1,6.8-8.3,9.7c-3.2,2.9-7,4.4-11,4.4c-3.4,0-6.6,0.7-9.8,1.3c-3.4,0.5-6.6-1.3-6-4.3c1-4.7-1.7-8.6-3.9-11.6
							c-3.2-4.5-4.8-9.3-5-14.2c-0.2-5.6-2.9-10.1-5.4-14.6c-3.9-6.8-1.5-12.8,1.6-18.5c1.5-2.9,1.6-5,1.1-8.1
							c-0.8-5.3-3.2-10.4-2.8-15.9c0.2,0,0.4,0.1,0.6,0.1c0-0.2,0-0.3-0.1-0.5c-0.2,0.2-0.3,0.3-0.5,0.5c-3.8-0.8-4.9-4.4-7.3-6.6
							c-3.1-2.8-1.2-6.2-0.5-9.4c1.2-1.2,2.9-0.3,4.3-0.9c0.5-2.9,0.5-2.9-3-3.8c-0.8-5.7-3-7.3-8.5-6.3c-1.6,0.3-2.7,0.5-3.7-1.3
							c-2.6-4.6-4.4-5.4-9.5-3.7c-5.7,1.9-11.4,3.6-17.5,3c-1-0.1-2.2,0-3.1,0.5c-4.7,2.6-8.2,1.3-11.7-2.3
							c-1.7-1.8-3.6-3.6-5.9-4.8c-0.8-0.4-1.8-1.1-1.9-1.8c-0.7-5.3-5.7-7.8-8.3-11.8c-1.9-2.9-2.2-6.5-1.1-9.7
							c2.1-5.7,2.6-10.9,1.1-16.6c1.4-1.1,3.2-0.5,4.7-0.6s3,0,4.7,0c0.9-2.2,0.5-4.5,2.5-6.4c1.6-1.6,0.3-4.2,1-6.5
							c2.5-1.1,5.3-0.1,8-0.7c0.9-1.4,1-2.9,0.4-4.7c-3.1,0-6.2,0-10.2,0c2.1-1.5,3.5-2.5,4.9-3.5c2.1-1.4,3.5-3.1,3.3-5.8
							c-0.2-2.8,1.2-5.6,3.5-6.7c3.6-1.8,5.8-4.4,7.6-8c5.2,3.7,10,2.3,14.8-0.4c4-2.3,8.5-2.8,13.1-2.1c4.4,0.6,8.7-1.3,13.3-0.5
							c-0.8,2.7,3.4,5.8-1.8,7.8c2.5,2.7,5,3.8,8.2,4c2.6,0.2,4.4,1.1,6.4,3.1c2.3,2.2,6.2,3.1,9.6,4c1.2,0.3,1.9-1.2,1.9-2.8
							c0.1-3.9,3.8-5.8,7.1-3.6c4.6,3.1,10.2,3,15.3,4.7c1.3,0.4,2.3-0.3,3.4-0.8c1.1-0.4,2.2-1.1,3.5-0.5c3,1.3,6,2,8.3-1.2
							c0.1-0.1,0.8,1.2,2.1,0.5c-2.6-4.9,1.7-9.8-0.3-14.8c-1.8,0.3-3.8-0.2-5.3,1.4c-0.3,0.3-1,0.5-1.2,0.4
							c-4.2-2.8-9.5-0.4-13.8-2.6c-0.1-0.1-0.3,0-0.4-0.1c-1.5-0.7-1.7-2.3-1.8-3.3c-0.2-2.4-3.2-4.2-1.3-6.9
							c-2.8-1.5-5.7-1.5-8.5,0l0.1-0.1c-1.9,1.6-1.3,4.2,1.7,6.6c-1.7,1-3.1,2.2-2,4.4c-2.1,0.1-3.5-0.5-3.6-2.1
							c-0.2-2.8-2.1-4.6-3.8-6.4c-3-3.2-2-6-0.1-9c-0.6-1.1-2.1-2.1-2.6-1.7c-4,3.4-6.8-0.6-8-2.3c-1.6-2.1-4.4-2.1-5.5-4.4
							c-0.4-0.8-2.3,0-2.8,0.6c-1,1.3-1.1,3.2,0.2,4.4c3.6,3.3,6.5,7.3,11.6,8.8c-2.6,3.7-2.5,3.4-5.9,1.3
							c-4.6-2.8-9.4-5.1-12.1-10.1c-1-1.9-3.6-1.3-5.2-0.1c-2.4,1.7-4.6,3-7.8,1.6c-1.8-0.8-4,0.4-3.7,2.5c0.5,2.9-1.7,3.1-3.3,3.8
							c-3,1.4-5.2,3.1-5.4,6.7c-0.1,2.8-4.7,6.4-7.8,6.5c-2.3,0-4.5,0.3-6.6,2.2c-1.2-3.5-3.8-3.8-6.8-3.1c-0.9-3.3-2-6-0.1-9.3
							c1.4-2.4,0.5-5.4,0.3-8.2c3.9-2.9,8.2-0.7,12.3-1.2c2.3-0.3,5.5,2.5,6.8-1.7c1.4-4.6,0.2-8-3.7-10.2c-1-0.6-2.6-0.3-2.6-2.3
							c2-2.3,5.1-0.1,7.7-1.4c2.3-1.1,4.8-2.3,6.6-3.7c1.7-1.4,3.5-2.8,5.4-3.7c4.1-1.9,6.4-6.6,12.3-6.1c-1.3-4.1-3.7-8.3,2.3-10
							c1.6,2.4,0.1,4.4-1.5,6.2c0.7,1.9,3.3,3.3,3.6,3.2c3.9-1.6,8.2,1.4,11.9-1c1.2-0.8,2.7-1.5,3.8-0.8c2.9,1.7,4.8,0.3,7-1.4
							c-0.9-2.4-1.7-4.9,1.3-6.5c1.8-0.3,2.5,2,4.3,1.4c2.6-2.3-0.7-3.3-1.4-5.2c3.9-3.5,9.6,0.6,13.1-2.9c-2.4-2.1-5.4-1.5-8.5-0.9
							c-8,1.6-8.2,1.5-10.4-6.4c2.7-1.8,5.5-3.7,7.8-6.2c-3.7-2.7-6.1-2.4-7.9,1.3c-0.5,1.1-1.2,1.9-2.3,2.5c-7,3.9-7,3.9-3.4,10.8
							c-1,1.1-3.2,1.8-2.9,3.5c0.7,4.5-3.2,5.5-5.7,7.5c-1.4,1.1-2.2-0.1-3.2-0.4c-1.8-0.4-0.2-1.1-0.2-1.7
							c-0.2-2.7-1.4-5.1-2.9-7.4c-0.5-0.8-1.6-1.1-2.7-0.1s-2.5,1.7-3.8,2.3c-3.1,1.3-5.1,0-5.3-3.2c0-0.3,0-0.6,0-0.9
							c0-1.7-2.2-3.3-0.9-4.7c1.7-1.7,3.9-3.1,6.1-4.2c4.4-2.2,7.6-5.6,11.3-8.7c4-3.4,7.2-9,14.2-8.7c3.4,0.1,6.7-1.8,10.4-1.8
							c2.9,0,5.2-0.2,7.6,2.1c1.3,1.2,4.2,1,6.5,1.2c4.9,0.3,9.4,2.3,13.9,3.8c1.1,0.3,2.6,0.6,2.3,2.2c-0.2,1.4-1.5,1.7-2.7,2
							c-2,0.4-3.9,0.2-5.9-0.2c-2.2-0.4-4.4-0.9-6.7-0.6c-0.4-1.1-1.1-1.5-2.3-1.1c0.5,0.9,1.5,0.9,2.3,1.1c0.7,1.2,2.4,0.7,3,2.3
							c1.8,4.2,3.4,4.6,7.8,3c1.2-0.4,2.7-0.2,4-0.3c0.7-1.1-1-1.4-0.6-2.7c1.9-0.8,3.5-2.6,6.3-1.6c1.6,0.6,1.4-1.1,1.9-1.8
							c0.1-0.2,0.3-0.4,0.4-0.6c2.3,0.9,4,1.6,6.7-0.6c2.4-2,6-3.7,10.5-2.2c2.8,0.9,6.5-1.4,10-0.8c1.7-4,5-2.7,7.8-2.1
							c3.2,0.7,6.4,1.8,9.6,2.7c0.4,0.1,0.8,0,1.9,0c-3.6-3.1-10-4.7-4.7-10.8c2.5,0.4,6-1.5,6.7,3.6c0.2,1.1,2.2,3.1,3.5,4.7
							c1.6,2.2,2.1,4.4,0,6.5c4.1,2.3,4.9,1.7,7.6-4.9c1.6-0.4,1.9,1.1,2.8,1.7c0.9,0.6,1.7,1.3,2.8,1.2c-2-3-3.6-4.5-6.6-4.1
							c-4,0.5-5.1-1.2-5.3-4.5c1.5-0.6,3.2-0.1,4.8-0.4c-0.1-1.1-1.3-0.3-1.7-0.9c5-2.5,5-2.5,15.2,3.3c-1.3-5.3-7.6-3.9-10.3-7.3
							c1.3-1.5,2.9-0.6,4.3-0.9c2-0.4,3.5-0.8,5.2-2.5c3.1-3.1,8.1-2.6,12.4-3c3-0.2,5.9,0.5,8.3-2.2c0.5-0.6,2.4-0.6,3.5-0.4
							c5.7,1.3,11.6,0.7,17.3,1.8c1.7,0.3,3.6,0.6,4.6,2.4c-1.7,1.9-4.7,2-5.8,4.6c3.3,0,6.3-1.2,9.6-1c10.4,0.6,20.8,1.8,30.9,4
							c5.8,1.3,11.3,1.7,17,1.1c2.3-0.2,5.2,2,6.4-2.2c0.4-1.3,3.7-0.6,5.6-0.2c3.2,0.6,6.4,0.9,9.7,0.9s6.7,1.4,10,2.5
							c1.9,0.6,3.8,0.8,5.8,0.5c5.1-0.7,9.9-0.5,14.3,2.5c2.8,1.9,6.4,1.1,9.4,1.1c4,0,8,0,12,0.7c0.5,0.4,0.9,0.7,1.4,0
							c0,0-0.5-0.5-0.8-0.7c5.5-2.2,11.1-1,16.4,0.4c7.4,1.9,15.3,2.3,22.2,6.1c2.1,1.1,4.1-0.8,6.2,0.1c1.8,0.7,3.7,1,5.8,1.6
							c-0.2,1.5-0.4,2.8-0.6,4c-5.8,0.9-11.2-6-16.7-0.1c2,1,3,3.7,6.2,4.1c-3.4,2-6.6,3.9-8.3,7.7c-4.7-2.4-8.9,0.6-13.6,0.4
							c1.2,2.9,1.9,5.3,5.6,6.4c3.1,1,3.6,5.4,6,7.9c-4.8,2.4,1.2,7-2.4,10c-4.6-4.1-9.4-8.1-13.9-12.3c-2.2-2-3.1-4.2-1-7.3
							c1.4-2,0.9-4.9,2.1-7.4c0.9-1.8-1.8-2.8-3.2-4c-1.7,1.3-0.7,3.5-2.8,4.5c-2.5-1.7-5.3-3.8-9.5-2.1c-0.3,1.8-2.1,3.7-0.6,6
							c-0.7,1.1-2.1,1.4-2.5,1.1c-5.9-3.9-12.3,0.1-18.3-1.1c-2-0.4-3.4,0.8-4,2.7c-1.1,3.4-2.2,6.8-4.7,10.4c4.9,0,8,4.1,13.1,2.5
							c1.3-0.4,4.2,1,5.7,3.3c4.9,7.4,8.5,14.8,4.5,23.8c-1.2,2.8-2.6,3.8-5.7,3.4c-2.8-0.4-5.8-0.5-7.9,2.4
							c-0.5,0.7-1.2,2.9-3.3,1.4c-0.9-0.7-1,0.5-1.4,1.1c-2.1,3-4.9,4.9-8.3,5.8c-1-0.7-1.3-1.3-0.9-2c0.6-1.2,0.4-2-0.9-2.4
							c-1-0.3-1.9-0.4-2.8,0.6c-1.5,1.8-2.1,4.6-5.4,4.2c0.5,2.3,1.8,2.7,3.2,2.8c1.7,0.1,1.5,2.2,3.3,2.6c2.1-1.5,4.8-1.4,7.5-0.2
							c0.2,1.5-1.4,1.1-2.1,1.8c-3.2,3-3,4.1,0.1,7.3c3,3.2,7.1,6.2,4.4,11.4c4.8,1,5.6,2.5,3.7,6.3c-1.3,2.6-2.1,5.5-3.3,8.1
							c-1.8,4-5.1,7.7-10.4,8.1c-3.6,0.3-5.9,3.1-9.4,3.8c-1.6,0.3-1.1,2.5-0.2,3.2c1.4,1.1,1.2,2.1,0.7,3.4
							c-0.5,1.2-1.4,1.9-2.7,1.9c-0.8,0-1.4-0.4-1.8-1.1c-0.8-1.3,0-2.2,1-2.9c0.5-0.4,0.9-0.8,1.4-1.2c-0.5-2.3-1.2-4.2-4.2-4.3
							c-2.8-0.1-3.8,1.8-5,3.7c-1.3,2-2.1,3.8-0.1,5.9c1.6,1.7,2.9,3.7,4.9,5.1c4.3,3.3,5.8,7.7,5.5,12.8c-0.1,0.9,0.1,1.9-0.6,2.5
							c-2.8,2.3-6.9,2.8-8.3,7c-4.4-6.2-9.5-9.7-14.4-13.4c-2.7,2.9-2.6,9.4-1.5,12.7c1.5,4.8,5.4,7.2,8.8,10.2
							c0.8,0.7,1.8,1.6,1.8,2.4c0.1,3.3,0.7,6.4,2.5,9.5c-5-0.7-8.8-3.7-9.5-7.7c-0.8-4.6-2.4-8.7-6.2-11.7
							c-1.4-1.1-0.8-2.3-0.6-3.6c1.1-6.9-1.1-15.1-5.5-21.1c-0.3,0-0.6-0.1-0.9-0.1c-1.7,0.5-2.1,3.3-4.8,2.3
							c-3.2-1.1-0.7-3.2-1.3-4.8c-0.8-2.3-1.5-5.1-3.6-6.4c-2.9-1.9-4.2-4.4-5.6-7.2c-1-2-2.1-3.6-3.6-0.1c-0.7,1.7-2.8,1.9-4.3,1.7
							c-2.8-0.3-4,0.3-5,3.3c-0.9,2.7-4.4,4.3-6.5,6.8s-4.3,5.2-7.4,6.8c-1.4,0.7-2.1,1.9-1.6,3.2c1.3,3.8-0.5,7.4-0.7,11
							c-0.2,3.3-2.6,5.7-5.1,9.2c-4.6-6.3-6.7-13.2-9.9-19.4c-3.4-6.4-4.8-13.4-6-20.6c-4.8,3.2-7,2.5-9.3-2.4
							c-1.6-3.5-5.2-5.7-7.6-8.8c-0.7-0.9-2,0-3,0.1c-6.4,0.7-12.6,0.3-19-0.6c-3.4-0.5-2.7-4.4-5.3-4.6c-2.2-0.2-4.2,2.8-6.8,1.1
							c-2.9-1.9-6.4-3.1-8.2-6.5c-2.1-3.9-4.1-4.2-8.4-2c3.3,4.9,6.3,9.9,9.9,14.5c2.6,3.3,7.5,2.9,10.2-0.5
							c0.7-0.9,1.4-1.9,2.9-2.4c1.3,2,1.2,5.2,4.5,5.8c2.6,0.5,4.7,1.8,6.1,4.2c0,0.2,0,0.7-0.3,1c-3.6,4.3-5.3,10-10.5,13.3
							c-0.7,0.4-1.1,1-2.1,1.2c-2.6,0.4-4.9,1.2-6.7,3.7c-1.9,2.7-6.2,2.6-9,4.6c-2.9,2-6.8,1.9-9.9,3.9c-1.6,1.1-3.2,0.2-3.8-1.8
							c-0.2-0.6-0.2-1.2-0.3-1.7c-1-7.7-4.5-14.2-10.4-19.5c-0.3-0.3-0.7-0.7-0.8-1.1c-1-8.5-8.3-13.7-12.1-20.7
							c-0.9-1.6,0-3.1-0.6-4.7c-0.8,1.5-0.5,3.5-2.3,4.3C388.2,122.3,388.6,119.4,386.7,119c-0.1-0.2,0-0.5-0.1-0.7
							c-0.1-0.3-0.4-0.2-0.4,0.1C386.2,118.6,386.5,118.8,386.7,119z M385.4,75.6c0.2-1.8-1-2.2-1.4-3c-1.7-3.3-5.5-4.3-7.5-1.4
							c-3.3,4.7-5.4,9.9-5.2,15.9c4.3,0.7,7.3-2.1,10.6-3.2c4-1.3,7.2-1.7,10.7,0.1c3.1,1.5,6.4,1.7,9.7,1.5c1.7-0.1,3.6-0.5,4-2.3
							c0.3-1.6-0.9-3-2.5-3.8c-3.3-1.7-6.1-4.2-9.9-5.3c1.1-2.3,2.1-4.3,3.3-6.7c-3.7,0.4-6.7,1.7-9.8,2.8c0.3,1.4,2.3,1.8,1.7,3.7
							C388.2,74.3,387.2,74.7,385.4,75.6z M483.5,86.1c-3.5-2.2-6.3-2.4-10.7-0.8c-0.7,0.2-1.1-0.2-1.7-0.3
							c-2.9-0.3-4.5-1.9-5.7-4.3c-1-2.1-2.7-3.4-5.4-3c-3.2,0.4-6.2,0-8.8-2.4c-1.3-1.2-3.1-1.9-4.7-2.6c-2.5-1.2-4.8-0.3-6.6,1.2
							c-1.4,1.1,1.3,9.4,3.3,10.7c1.2-1.9,2.3-4.6,5.1-3.4c2.8,1.2,6,2.8,8,4.8c3.2,3.2,6.9,5,10.7,7.1c0.9,0.5,2.1,0.5,2.5,1.6
							c0.7,1.9,2.4,1.7,3.6,0.9c1.2-0.9,1.1-2.3,0.1-3.5c-0.5-0.7-1-1.4-1.3-1.8C474.2,84.5,480.1,89.4,483.5,86.1z M360.2,85.6
							c0.3-2.8-0.5-4.3-3.1-4c-1.5,0.2-3.3,0.7-2.8,2.6C355.2,87.7,358.2,84.2,360.2,85.6z"/>
					</defs>
					<clipPath id="SVGID_5_">
						<use xlink:href="#SVGID_4_"  style="overflow:visible;"/>
					</clipPath>
					<rect x="212.7" y="-26.7" class="st5" width="307.3" height="167.2"/>
				</g>
			</g>
			<path class="st6" d="M258.8,20c0,0,2-1.3,2.7-0.8s-1.2,1.4,2.2,1.8c3.3,0.4,5.3,0.9,7.3-1c2-1.8,5.7-1.7,4.5-3.5
				s-3.5-2.9-4.5-1.7s-3.8,2-5.3,1.7s-4.3-0.3-4.8,0.3C260.3,17.5,258.8,20,258.8,20z"/>
			<path class="st6" d="M280.7,47c0.5,1.5,3.5,2,1.7,3.2s-4.2,3-2.7,4s3.5,0.8,4.5-1.3c1-2.2,4.2-6.7,4.7-6.7s1.2-3.7-2.2-2.3
				C283.3,45.2,280.7,47,280.7,47z"/>
			<path class="st6" d="M293.3,37c0.2-1.7-2.5,1.9-1.8,3.9s0.8,4,2.7,4.2c1.8,0.2,3.5-0.1,3,2c-0.5,2,1.4,3.9-1.3,4
				c-2.7,0.2-4,1-2.8,1.7s5,0.8,2.8,2.1c-2.2,1.2-7.8,2.4-5.8,2.9s4.8-1.5,8.2-1c3.3,0.5,8.8-0.2,6.8-1s-4.3-1.3-1.7-2.5
				c2.7-1.2,2.3-1.5-0.3-2.7s-2.1-2.7-1.9-3.5s-2.1-3.4-4.4-3.4s-3-3-0.8-3.5s1.5-2.7,0-2C294.3,38.7,293.2,38.8,293.3,37z"/>
		</g>
		<circle class="st7" cx="81.6" cy="150.1" r="3"/>
		<circle class="st7" cx="134.9" cy="188.5" r="3"/>
		<circle class="st7" cx="203.6" cy="235.4" r="3"/>
		<circle class="st7" cx="154.8" cy="288.1" r="3"/>
		<circle class="st7" cx="178.5" cy="288.1" r="3"/>
		<circle class="st7" cx="132.8" cy="111.4" r="3"/>
		<circle class="st7" cx="147.6" cy="89.4" r="3"/>
		<circle class="st7" cx="280.3" cy="90.1" r="3"/>
		<circle class="st7" cx="288.6" cy="86.7" r="3"/>
		<circle class="st7" cx="286.1" cy="49.1" r="3"/>
		<circle class="st7" cx="266.5" cy="17.3" r="3"/>
		<circle class="st7" cx="317.5" cy="52.1" r="3"/>
		<circle class="st7" cx="309.5" cy="58.1" r="3"/>
		<ellipse transform="matrix(0.8014 -0.5981 0.5981 0.8014 25.2425 200.4396)" class="st7" cx="314.5" cy="62.2" rx="3" ry="3"/>
		<ellipse transform="matrix(0.8014 -0.5981 0.5981 0.8014 22.5811 204.3249)" class="st7" cx="319" cy="68.2" rx="3" ry="3"/>
		<ellipse transform="matrix(0.8014 -0.5981 0.5981 0.8014 21.5883 195.6304)" class="st7" cx="305.4" cy="65.3" rx="3" ry="3"/>
		<ellipse transform="matrix(0.8014 -0.5981 0.5981 0.8014 41.2653 205.6963)" class="st7" cx="330.4" cy="40.7" rx="3" ry="3"/>
		<ellipse transform="matrix(0.8014 -0.5981 0.5981 0.8014 45.883 198.8314)" class="st7" cx="322.4" cy="30.3" rx="3" ry="3"/>
		<ellipse transform="matrix(0.8014 -0.5981 0.5981 0.8014 48.7848 209.1071)" class="st7" cx="339.3" cy="31.1" rx="3" ry="3"/>
		<ellipse transform="matrix(0.8014 -0.5981 0.5981 0.8014 34.5917 208.4276)" class="st7" cx="331.2" cy="52.1" rx="3" ry="3"/>
		<ellipse transform="matrix(0.8014 -0.5981 0.5981 0.8014 30.8151 211.1973)" class="st7" cx="333.5" cy="59.2" rx="3" ry="3"/>
		<ellipse transform="matrix(0.8014 -0.5981 0.5981 0.8014 17.7123 215.1102)" class="st7" cx="332.8" cy="80.9" rx="3" ry="3"/>
		<ellipse transform="matrix(0.8014 -0.5981 0.5981 0.8014 24.5798 216.4248)" class="st7" cx="338.2" cy="71.2" rx="3" ry="3"/>
		<ellipse transform="matrix(0.8014 -0.5981 0.5981 0.8014 28.6503 215.0792)" class="st7" cx="338.2" cy="64.4" rx="3" ry="3"/>
		<ellipse transform="matrix(0.866 -0.5 0.5 0.866 17.1666 178.2975)" class="st7" cx="341.3" cy="57.1" rx="3" ry="3"/>
		<ellipse transform="matrix(0.866 -0.5 0.5 0.866 13.98 180.9356)" class="st7" cx="344.6" cy="64.4" rx="3" ry="3"/>
		<ellipse transform="matrix(0.866 -0.5 0.5 0.866 35.1909 182.0976)" class="st7" cx="357.4" cy="25.4" rx="3" ry="3"/>
		<ellipse transform="matrix(0.866 -0.5 0.5 0.866 31.3939 183.7124)" class="st7" cx="358.5" cy="33.3" rx="3" ry="3"/>
		<ellipse transform="matrix(0.866 -0.5 0.5 0.866 28.3428 196.9425)" class="st7" cx="381.7" cy="45.6" rx="3" ry="3"/>
		<ellipse transform="matrix(0.866 -0.5 0.5 0.866 3.3165 190.6325)" class="st7" cx="357.4" cy="89.1" rx="3" ry="3"/>
		<ellipse transform="matrix(0.866 -0.5 0.5 0.866 7.7943 203.0428)" class="st7" cx="382.8" cy="87" rx="3" ry="3"/>
		<ellipse transform="matrix(0.866 -0.5 0.5 0.866 -5.0439 210.5704)" class="st7" cx="390.4" cy="114.7" rx="3" ry="3"/>
		<ellipse transform="matrix(0.866 -0.5 0.5 0.866 -8.9797 205.1268)" class="st7" cx="378.3" cy="119.3" rx="3" ry="3"/>
		<ellipse transform="matrix(0.866 -0.5 0.5 0.866 -9.6419 262.7632)" class="st7" cx="485.5" cy="149.4" rx="3" ry="3"/>
		<ellipse transform="matrix(0.866 -0.5 0.5 0.866 24.8409 291.7336)" class="st7" cx="556.8" cy="99.5" rx="3" ry="3"/>
		<ellipse transform="matrix(0.866 -0.5 0.5 0.866 24.5076 306.2907)" class="st7" cx="583.8" cy="107.4" rx="3" ry="3"/>
		<ellipse transform="matrix(0.866 -0.5 0.5 0.866 26.2821 318.2404)" class="st7" cx="607" cy="110.1" rx="3" ry="3"/>
		<ellipse transform="matrix(0.866 -0.5 0.5 0.866 -34.0543 306.8758)" class="st7" cx="555.6" cy="217" rx="3" ry="3"/>
		<ellipse transform="matrix(0.866 -0.5 0.5 0.866 -57.6794 353.325)" class="st7" cx="630.5" cy="284.3" rx="3" ry="3"/>
		<ellipse transform="matrix(0.866 -0.5 0.5 0.866 -57.4056 381.9503)" class="st7" cx="684" cy="298.1" rx="3" ry="3"/>
		<ellipse transform="matrix(0.7071 -0.7071 0.7071 0.7071 51.2389 226.3309)" class="st7" cx="298.8" cy="51.3" rx="3" ry="3"/>
		<g id="Layer_2" class="st8">
		</g>
	</g>
</g>
<g transform="scale(.5) translate(300, 5) ">
	<g>
		<polyline class="st9" points="259.3,138.6 220.7,138.6 220.7,112.5 259.3,112.5 259.3,138.6 		"/>
	</g>
	<polyline class="st10" points="241.4,116.5 240.5,117.2 240.8,118.1 240,117.5 239.2,118.1 239.5,117.2 238.6,116.5 239.7,116.5 
		240,115.5 240.4,116.5 241.4,116.5 	"/>
	<polyline class="st10" points="241.4,133.7 240.5,134.3 240.8,135.3 240,134.7 239.2,135.3 239.5,134.3 238.6,133.7 239.7,133.7 
		240,132.7 240.4,133.7 241.4,133.7 	"/>
	<polyline class="st10" points="232.8,125.1 231.9,125.7 232.2,126.7 231.4,126.1 230.5,126.7 230.9,125.7 230,125.1 231.1,125.1 
		231.4,124.1 231.7,125.1 232.8,125.1 	"/>
	<polyline class="st10" points="234.1,120.7 233.2,121.4 233.5,122.3 232.6,121.7 231.8,122.3 232.1,121.4 231.2,120.7 232.3,120.7 
		232.7,119.7 233,120.7 234.1,120.7 	"/>
	<polyline class="st10" points="237.1,117.7 236.2,118.3 236.5,119.2 235.7,118.7 234.8,119.2 235.1,118.3 234.3,117.7 235.4,117.7 
		235.7,116.6 236,117.7 237.1,117.7 	"/>
	<polyline class="st10" points="245.6,117.7 244.7,118.3 245,119.2 244.2,118.7 243.3,119.2 243.7,118.3 242.8,117.7 243.9,117.7 
		244.2,116.6 244.5,117.7 245.6,117.7 	"/>
	<polyline class="st10" points="248.7,120.7 247.9,121.4 248.1,122.3 247.3,121.7 246.5,122.3 246.8,121.4 245.9,120.7 247,120.7 
		247.3,119.7 247.7,120.7 248.7,120.7 	"/>
	<polyline class="st10" points="234,129.4 233.1,130 233.4,131 232.6,130.4 231.7,131 232.1,130 231.2,129.4 232.3,129.4 
		232.6,128.4 232.9,129.4 234,129.4 	"/>
	<polyline class="st10" points="237.1,132.6 236.2,133.2 236.5,134.2 235.6,133.6 234.8,134.1 235.1,133.2 234.2,132.6 235.3,132.6 
		235.7,131.6 236,132.6 237.1,132.6 	"/>
	<polyline class="st10" points="245.7,132.6 244.8,133.2 245.1,134.2 244.3,133.6 243.4,134.1 243.7,133.2 242.9,132.6 244,132.6 
		244.3,131.6 244.6,132.6 245.7,132.6 	"/>
	<polyline class="st10" points="248.8,129.4 247.9,130 248.2,131 247.4,130.4 246.5,131 246.8,130 245.9,129.4 247,129.4 
		247.4,128.4 247.7,129.4 248.8,129.4 	"/>
	<polyline class="st10" points="249.9,125.1 249,125.7 249.3,126.7 248.5,126.1 247.6,126.7 248,125.7 247.1,125.1 248.2,125.1 
		248.5,124.1 248.8,125.1 249.9,125.1 	"/>
</g>
<circle class="st7" cx="118.1" cy="178.1" r="3"/>
<circle class="st7" cx="358.5" cy="42.6" r="3"/>
<circle class="st7" cx="355.4" cy="50.3" r="3"/>
<circle class="st7" cx="349.5" cy="55.1" r="3"/>
<circle class="st7" cx="358.5" cy="278.3" r="3"/>
<circle class="st7" cx="539.6" cy="191.1" r="3"/>
<circle class="st7" cx="536.6" cy="163.3" r="3"/>
<circle class="st7" cx="134.9" cy="235.4" r="3"/>
<circle class="st7" cx="340" cy="95" r="3" />
</svg>
